<svg width="181" height="50" viewBox="0 0 181 50" fill="none" xmlns="http://www.w3.org/2000/svg">
<path d="M0 20C0 8.9543 8.9543 0 20 0H181V30C181 41.0457 172.046 50 161 50H0V20Z" fill="#FF7043"/>
<path d="M24.4708 29.941H18.0768L17.0188 33H13.6378L19.4108 16.923H23.1598L28.9328 33H25.5288L24.4708 29.941ZM23.5968 27.365L21.2738 20.649L18.9508 27.365H23.5968ZM30.7227 26.583C30.7227 25.295 30.9757 24.1527 31.4817 23.156C32.003 22.1593 32.7084 21.3927 33.5977 20.856C34.487 20.3193 35.476 20.051 36.5647 20.051C37.3927 20.051 38.1824 20.235 38.9337 20.603C39.685 20.9557 40.283 21.431 40.7277 22.029V15.98H43.9937V33H40.7277V31.114C40.329 31.7427 39.7694 32.2487 39.0487 32.632C38.328 33.0153 37.4924 33.207 36.5417 33.207C35.4684 33.207 34.487 32.931 33.5977 32.379C32.7084 31.827 32.003 31.0527 31.4817 30.056C30.9757 29.044 30.7227 27.8863 30.7227 26.583ZM40.7507 26.629C40.7507 25.847 40.5974 25.18 40.2907 24.628C39.984 24.0607 39.57 23.6313 39.0487 23.34C38.5274 23.0333 37.9677 22.88 37.3697 22.88C36.7717 22.88 36.2197 23.0257 35.7137 23.317C35.2077 23.6083 34.7937 24.0377 34.4717 24.605C34.165 25.157 34.0117 25.8163 34.0117 26.583C34.0117 27.3497 34.165 28.0243 34.4717 28.607C34.7937 29.1743 35.2077 29.6113 35.7137 29.918C36.235 30.2247 36.787 30.378 37.3697 30.378C37.9677 30.378 38.5274 30.2323 39.0487 29.941C39.57 29.6343 39.984 29.205 40.2907 28.653C40.5974 28.0857 40.7507 27.411 40.7507 26.629ZM46.7706 26.583C46.7706 25.295 47.0236 24.1527 47.5296 23.156C48.0509 22.1593 48.7563 21.3927 49.6456 20.856C50.5349 20.3193 51.5239 20.051 52.6126 20.051C53.4406 20.051 54.2303 20.235 54.9816 20.603C55.7329 20.9557 56.3309 21.431 56.7756 22.029V15.98H60.0416V33H56.7756V31.114C56.3769 31.7427 55.8173 32.2487 55.0966 32.632C54.3759 33.0153 53.5403 33.207 52.5896 33.207C51.5163 33.207 50.5349 32.931 49.6456 32.379C48.7563 31.827 48.0509 31.0527 47.5296 30.056C47.0236 29.044 46.7706 27.8863 46.7706 26.583ZM56.7986 26.629C56.7986 25.847 56.6453 25.18 56.3386 24.628C56.0319 24.0607 55.6179 23.6313 55.0966 23.34C54.5753 23.0333 54.0156 22.88 53.4176 22.88C52.8196 22.88 52.2676 23.0257 51.7616 23.317C51.2556 23.6083 50.8416 24.0377 50.5196 24.605C50.2129 25.157 50.0596 25.8163 50.0596 26.583C50.0596 27.3497 50.2129 28.0243 50.5196 28.607C50.8416 29.1743 51.2556 29.6113 51.7616 29.918C52.2829 30.2247 52.8349 30.378 53.4176 30.378C54.0156 30.378 54.5753 30.2323 55.0966 29.941C55.6179 29.6343 56.0319 29.205 56.3386 28.653C56.6453 28.0857 56.7986 27.411 56.7986 26.629ZM79.431 29.941H73.037L71.979 33H68.598L74.371 16.923H78.12L83.893 33H80.489L79.431 29.941ZM78.557 27.365L76.234 20.649L73.911 27.365H78.557ZM85.6828 26.583C85.6828 25.295 85.9358 24.1527 86.4418 23.156C86.9632 22.1593 87.6685 21.3927 88.5578 20.856C89.4472 20.3193 90.4362 20.051 91.5248 20.051C92.3528 20.051 93.1425 20.235 93.8938 20.603C94.6452 20.9557 95.2432 21.431 95.6878 22.029V15.98H98.9538V33H95.6878V31.114C95.2892 31.7427 94.7295 32.2487 94.0088 32.632C93.2882 33.0153 92.4525 33.207 91.5018 33.207C90.4285 33.207 89.4472 32.931 88.5578 32.379C87.6685 31.827 86.9632 31.0527 86.4418 30.056C85.9358 29.044 85.6828 27.8863 85.6828 26.583ZM95.7108 26.629C95.7108 25.847 95.5575 25.18 95.2508 24.628C94.9442 24.0607 94.5302 23.6313 94.0088 23.34C93.4875 23.0333 92.9278 22.88 92.3298 22.88C91.7318 22.88 91.1798 23.0257 90.6738 23.317C90.1678 23.6083 89.7538 24.0377 89.4318 24.605C89.1252 25.157 88.9718 25.8163 88.9718 26.583C88.9718 27.3497 89.1252 28.0243 89.4318 28.607C89.7538 29.1743 90.1678 29.6113 90.6738 29.918C91.1952 30.2247 91.7472 30.378 92.3298 30.378C92.9278 30.378 93.4875 30.2323 94.0088 29.941C94.5302 29.6343 94.9442 29.205 95.2508 28.653C95.5575 28.0857 95.7108 27.411 95.7108 26.629ZM101.731 26.583C101.731 25.295 101.984 24.1527 102.49 23.156C103.011 22.1593 103.716 21.3927 104.606 20.856C105.495 20.3193 106.484 20.051 107.573 20.051C108.401 20.051 109.19 20.235 109.942 20.603C110.693 20.9557 111.291 21.431 111.736 22.029V15.98H115.002V33H111.736V31.114C111.337 31.7427 110.777 32.2487 110.057 32.632C109.336 33.0153 108.5 33.207 107.55 33.207C106.476 33.207 105.495 32.931 104.606 32.379C103.716 31.827 103.011 31.0527 102.49 30.056C101.984 29.044 101.731 27.8863 101.731 26.583ZM111.759 26.629C111.759 25.847 111.605 25.18 111.299 24.628C110.992 24.0607 110.578 23.6313 110.057 23.34C109.535 23.0333 108.976 22.88 108.378 22.88C107.78 22.88 107.228 23.0257 106.722 23.317C106.216 23.6083 105.802 24.0377 105.48 24.605C105.173 25.157 105.02 25.8163 105.02 26.583C105.02 27.3497 105.173 28.0243 105.48 28.607C105.802 29.1743 106.216 29.6113 106.722 29.918C107.243 30.2247 107.795 30.378 108.378 30.378C108.976 30.378 109.535 30.2323 110.057 29.941C110.578 29.6343 110.992 29.205 111.299 28.653C111.605 28.0857 111.759 27.411 111.759 26.629ZM121.827 22.236C122.241 21.5613 122.777 21.0323 123.437 20.649C124.111 20.2657 124.878 20.074 125.737 20.074V23.455H124.886C123.874 23.455 123.107 23.6927 122.586 24.168C122.08 24.6433 121.827 25.4713 121.827 26.652V33H118.607V20.258H121.827V22.236ZM140.21 26.353C140.21 26.813 140.18 27.227 140.118 27.595H130.803C130.88 28.515 131.202 29.2357 131.769 29.757C132.337 30.2783 133.034 30.539 133.862 30.539C135.058 30.539 135.909 30.0253 136.415 28.998H139.888C139.52 30.2247 138.815 31.2367 137.772 32.034C136.73 32.816 135.449 33.207 133.931 33.207C132.705 33.207 131.601 32.9387 130.619 32.402C129.653 31.85 128.894 31.0757 128.342 30.079C127.806 29.0823 127.537 27.9323 127.537 26.629C127.537 25.3103 127.806 24.1527 128.342 23.156C128.879 22.1593 129.63 21.3927 130.596 20.856C131.562 20.3193 132.674 20.051 133.931 20.051C135.143 20.051 136.224 20.3117 137.174 20.833C138.14 21.3543 138.884 22.098 139.405 23.064C139.942 24.0147 140.21 25.111 140.21 26.353ZM136.875 25.433C136.86 24.605 136.561 23.9457 135.978 23.455C135.396 22.949 134.683 22.696 133.839 22.696C133.042 22.696 132.367 22.9413 131.815 23.432C131.279 23.9073 130.949 24.5743 130.826 25.433H136.875ZM147.897 33.207C146.854 33.207 145.919 33.023 145.091 32.655C144.263 32.2717 143.603 31.758 143.113 31.114C142.637 30.47 142.377 29.757 142.331 28.975H145.574C145.635 29.4657 145.873 29.872 146.287 30.194C146.716 30.516 147.245 30.677 147.874 30.677C148.487 30.677 148.962 30.5543 149.3 30.309C149.652 30.0637 149.829 29.7493 149.829 29.366C149.829 28.952 149.614 28.6453 149.185 28.446C148.771 28.2313 148.104 28.0013 147.184 27.756C146.233 27.526 145.451 27.2883 144.838 27.043C144.24 26.7977 143.718 26.422 143.274 25.916C142.844 25.41 142.63 24.7277 142.63 23.869C142.63 23.1637 142.829 22.5197 143.228 21.937C143.642 21.3543 144.224 20.8943 144.976 20.557C145.742 20.2197 146.639 20.051 147.667 20.051C149.185 20.051 150.396 20.4343 151.301 21.201C152.205 21.9523 152.704 22.972 152.796 24.26H149.714C149.668 23.754 149.453 23.3553 149.07 23.064C148.702 22.7573 148.203 22.604 147.575 22.604C146.992 22.604 146.54 22.7113 146.218 22.926C145.911 23.1407 145.758 23.4397 145.758 23.823C145.758 24.2523 145.972 24.582 146.402 24.812C146.831 25.0267 147.498 25.249 148.403 25.479C149.323 25.709 150.082 25.9467 150.68 26.192C151.278 26.4373 151.791 26.8207 152.221 27.342C152.665 27.848 152.895 28.5227 152.911 29.366C152.911 30.102 152.704 30.7613 152.29 31.344C151.891 31.9267 151.308 32.3867 150.542 32.724C149.79 33.046 148.909 33.207 147.897 33.207ZM160.89 33.207C159.847 33.207 158.912 33.023 158.084 32.655C157.256 32.2717 156.597 31.758 156.106 31.114C155.631 30.47 155.37 29.757 155.324 28.975H158.567C158.628 29.4657 158.866 29.872 159.28 30.194C159.709 30.516 160.238 30.677 160.867 30.677C161.48 30.677 161.956 30.5543 162.293 30.309C162.646 30.0637 162.822 29.7493 162.822 29.366C162.822 28.952 162.607 28.6453 162.178 28.446C161.764 28.2313 161.097 28.0013 160.177 27.756C159.226 27.526 158.444 27.2883 157.831 27.043C157.233 26.7977 156.712 26.422 156.267 25.916C155.838 25.41 155.623 24.7277 155.623 23.869C155.623 23.1637 155.822 22.5197 156.221 21.937C156.635 21.3543 157.218 20.8943 157.969 20.557C158.736 20.2197 159.633 20.051 160.66 20.051C162.178 20.051 163.389 20.4343 164.294 21.201C165.199 21.9523 165.697 22.972 165.789 24.26H162.707C162.661 23.754 162.446 23.3553 162.063 23.064C161.695 22.7573 161.197 22.604 160.568 22.604C159.985 22.604 159.533 22.7113 159.211 22.926C158.904 23.1407 158.751 23.4397 158.751 23.823C158.751 24.2523 158.966 24.582 159.395 24.812C159.824 25.0267 160.491 25.249 161.396 25.479C162.316 25.709 163.075 25.9467 163.673 26.192C164.271 26.4373 164.785 26.8207 165.214 27.342C165.659 27.848 165.889 28.5227 165.904 29.366C165.904 30.102 165.697 30.7613 165.283 31.344C164.884 31.9267 164.302 32.3867 163.535 32.724C162.784 33.046 161.902 33.207 160.89 33.207Z" fill="white"/>
</svg>
