<svg width="256" height="88" viewBox="0 0 256 88" fill="none" xmlns="http://www.w3.org/2000/svg">
<g filter="url(#filter0_d_1471:5332)">
<rect x="6.5" y="6.5" width="223" height="55" rx="9.5" stroke="#FF8A65" shape-rendering="crispEdges"/>
</g>
<path d="M71.3139 34.288C71.9112 34.3947 72.4179 34.7093 72.8339 35.232C73.2499 35.7547 73.4579 36.3467 73.4579 37.008C73.4579 37.5733 73.3085 38.0853 73.0099 38.544C72.7219 38.992 72.3005 39.3493 71.7459 39.616C71.1912 39.872 70.5459 40 69.8099 40H65.3619V28.88H69.6019C70.3592 28.88 71.0099 29.008 71.5539 29.264C72.0979 29.52 72.5085 29.8667 72.7859 30.304C73.0632 30.7307 73.2019 31.2107 73.2019 31.744C73.2019 32.384 73.0312 32.9173 72.6899 33.344C72.3485 33.7707 71.8899 34.0853 71.3139 34.288ZM67.1859 33.552H69.4419C70.0392 33.552 70.5032 33.4187 70.8339 33.152C71.1752 32.8747 71.3459 32.48 71.3459 31.968C71.3459 31.4667 71.1752 31.0773 70.8339 30.8C70.5032 30.512 70.0392 30.368 69.4419 30.368H67.1859V33.552ZM69.6499 38.512C70.2685 38.512 70.7539 38.3627 71.1059 38.064C71.4579 37.7653 71.6339 37.3493 71.6339 36.816C71.6339 36.272 71.4472 35.84 71.0739 35.52C70.7005 35.2 70.2045 35.04 69.5859 35.04H67.1859V38.512H69.6499ZM75.152 35.552C75.152 34.6667 75.3333 33.8827 75.696 33.2C76.0693 32.5173 76.5707 31.9893 77.2 31.616C77.84 31.232 78.544 31.04 79.312 31.04C80.0053 31.04 80.608 31.1787 81.12 31.456C81.6427 31.7227 82.0587 32.0587 82.368 32.464V31.184H84.208V40H82.368V38.688C82.0587 39.104 81.6373 39.4507 81.104 39.728C80.5707 40.0053 79.9627 40.144 79.28 40.144C78.5227 40.144 77.8293 39.952 77.2 39.568C76.5707 39.1733 76.0693 38.6293 75.696 37.936C75.3333 37.232 75.152 36.4373 75.152 35.552ZM82.368 35.584C82.368 34.976 82.24 34.448 81.984 34C81.7387 33.552 81.4133 33.2107 81.008 32.976C80.6027 32.7413 80.1653 32.624 79.696 32.624C79.2267 32.624 78.7893 32.7413 78.384 32.976C77.9787 33.2 77.648 33.536 77.392 33.984C77.1467 34.4213 77.024 34.944 77.024 35.552C77.024 36.16 77.1467 36.6933 77.392 37.152C77.648 37.6107 77.9787 37.9627 78.384 38.208C78.8 38.4427 79.2373 38.56 79.696 38.56C80.1653 38.56 80.6027 38.4427 81.008 38.208C81.4133 37.9733 81.7387 37.632 81.984 37.184C82.24 36.7253 82.368 36.192 82.368 35.584ZM86.3158 35.584C86.3158 34.6773 86.4971 33.8827 86.8598 33.2C87.2331 32.5067 87.7451 31.9733 88.3958 31.6C89.0464 31.2267 89.7931 31.04 90.6358 31.04C91.7024 31.04 92.5824 31.296 93.2758 31.808C93.9798 32.3093 94.4544 33.0293 94.6998 33.968H92.7318C92.5718 33.5307 92.3158 33.1893 91.9638 32.944C91.6118 32.6987 91.1691 32.576 90.6358 32.576C89.8891 32.576 89.2918 32.8427 88.8438 33.376C88.4064 33.8987 88.1878 34.6347 88.1878 35.584C88.1878 36.5333 88.4064 37.2747 88.8438 37.808C89.2918 38.3413 89.8891 38.608 90.6358 38.608C91.6918 38.608 92.3904 38.144 92.7318 37.216H94.6998C94.4438 38.112 93.9638 38.8267 93.2598 39.36C92.5558 39.8827 91.6811 40.144 90.6358 40.144C89.7931 40.144 89.0464 39.9573 88.3958 39.584C87.7451 39.2 87.2331 38.6667 86.8598 37.984C86.4971 37.2907 86.3158 36.4907 86.3158 35.584ZM100.326 35.6L104.39 40H101.926L98.6615 36.208V40H96.8375V28.16H98.6615V35.04L101.862 31.184H104.39L100.326 35.6ZM112.621 32.672V37.552C112.621 37.8827 112.696 38.1227 112.845 38.272C113.005 38.4107 113.272 38.48 113.645 38.48H114.765V40H113.325C112.504 40 111.874 39.808 111.437 39.424C111 39.04 110.781 38.416 110.781 37.552V32.672H109.741V31.184H110.781V28.992H112.621V31.184H114.765V32.672H112.621ZM120.59 40.144C119.758 40.144 119.006 39.9573 118.334 39.584C117.662 39.2 117.134 38.6667 116.75 37.984C116.366 37.2907 116.174 36.4907 116.174 35.584C116.174 34.688 116.372 33.8933 116.766 33.2C117.161 32.5067 117.7 31.9733 118.382 31.6C119.065 31.2267 119.828 31.04 120.67 31.04C121.513 31.04 122.276 31.2267 122.958 31.6C123.641 31.9733 124.18 32.5067 124.574 33.2C124.969 33.8933 125.166 34.688 125.166 35.584C125.166 36.48 124.964 37.2747 124.558 37.968C124.153 38.6613 123.598 39.2 122.894 39.584C122.201 39.9573 121.433 40.144 120.59 40.144ZM120.59 38.56C121.06 38.56 121.497 38.448 121.902 38.224C122.318 38 122.654 37.664 122.91 37.216C123.166 36.768 123.294 36.224 123.294 35.584C123.294 34.944 123.172 34.4053 122.926 33.968C122.681 33.52 122.356 33.184 121.95 32.96C121.545 32.736 121.108 32.624 120.638 32.624C120.169 32.624 119.732 32.736 119.326 32.96C118.932 33.184 118.617 33.52 118.382 33.968C118.148 34.4053 118.03 34.944 118.03 35.584C118.03 36.5333 118.27 37.2693 118.75 37.792C119.241 38.304 119.854 38.56 120.59 38.56ZM131.158 34.416C131.158 33.328 131.408 32.352 131.91 31.488C132.422 30.624 133.11 29.952 133.974 29.472C134.848 28.9813 135.803 28.736 136.838 28.736C138.022 28.736 139.072 29.0293 139.99 29.616C140.918 30.192 141.59 31.0133 142.006 32.08H139.814C139.526 31.4933 139.126 31.056 138.614 30.768C138.102 30.48 137.51 30.336 136.838 30.336C136.102 30.336 135.446 30.5013 134.87 30.832C134.294 31.1627 133.84 31.6373 133.51 32.256C133.19 32.8747 133.03 33.5947 133.03 34.416C133.03 35.2373 133.19 35.9573 133.51 36.576C133.84 37.1947 134.294 37.6747 134.87 38.016C135.446 38.3467 136.102 38.512 136.838 38.512C137.51 38.512 138.102 38.368 138.614 38.08C139.126 37.792 139.526 37.3547 139.814 36.768H142.006C141.59 37.8347 140.918 38.656 139.99 39.232C139.072 39.808 138.022 40.096 136.838 40.096C135.792 40.096 134.838 39.856 133.974 39.376C133.11 38.8853 132.422 38.208 131.91 37.344C131.408 36.48 131.158 35.504 131.158 34.416ZM143.853 35.552C143.853 34.6667 144.034 33.8827 144.397 33.2C144.77 32.5173 145.271 31.9893 145.901 31.616C146.541 31.232 147.245 31.04 148.013 31.04C148.706 31.04 149.309 31.1787 149.821 31.456C150.343 31.7227 150.759 32.0587 151.069 32.464V31.184H152.909V40H151.069V38.688C150.759 39.104 150.338 39.4507 149.805 39.728C149.271 40.0053 148.663 40.144 147.981 40.144C147.223 40.144 146.53 39.952 145.901 39.568C145.271 39.1733 144.77 38.6293 144.397 37.936C144.034 37.232 143.853 36.4373 143.853 35.552ZM151.069 35.584C151.069 34.976 150.941 34.448 150.685 34C150.439 33.552 150.114 33.2107 149.709 32.976C149.303 32.7413 148.866 32.624 148.397 32.624C147.927 32.624 147.49 32.7413 147.085 32.976C146.679 33.2 146.349 33.536 146.093 33.984C145.847 34.4213 145.725 34.944 145.725 35.552C145.725 36.16 145.847 36.6933 146.093 37.152C146.349 37.6107 146.679 37.9627 147.085 38.208C147.501 38.4427 147.938 38.56 148.397 38.56C148.866 38.56 149.303 38.4427 149.709 38.208C150.114 37.9733 150.439 37.632 150.685 37.184C150.941 36.7253 151.069 36.192 151.069 35.584ZM157.448 32.464C157.715 32.016 158.067 31.6693 158.504 31.424C158.952 31.168 159.48 31.04 160.088 31.04V32.928H159.624C158.91 32.928 158.366 33.1093 157.992 33.472C157.63 33.8347 157.448 34.464 157.448 35.36V40H155.624V31.184H157.448V32.464ZM164.213 32.672V37.552C164.213 37.8827 164.288 38.1227 164.437 38.272C164.597 38.4107 164.864 38.48 165.237 38.48H166.357V40H164.917C164.096 40 163.466 39.808 163.029 39.424C162.592 39.04 162.373 38.416 162.373 37.552V32.672H161.333V31.184H162.373V28.992H164.213V31.184H166.357V32.672H164.213Z" fill="#FF8A65"/>
<defs>
<filter id="filter0_d_1471:5332" x="0" y="0" width="256" height="88" filterUnits="userSpaceOnUse" color-interpolation-filters="sRGB">
<feFlood flood-opacity="0" result="BackgroundImageFix"/>
<feColorMatrix in="SourceAlpha" type="matrix" values="0 0 0 0 0 0 0 0 0 0 0 0 0 0 0 0 0 0 127 0" result="hardAlpha"/>
<feOffset dx="10" dy="10"/>
<feGaussianBlur stdDeviation="8"/>
<feComposite in2="hardAlpha" operator="out"/>
<feColorMatrix type="matrix" values="0 0 0 0 1 0 0 0 0 0.541176 0 0 0 0 0.396078 0 0 0 0.9 0"/>
<feBlend mode="normal" in2="BackgroundImageFix" result="effect1_dropShadow_1471:5332"/>
<feBlend mode="normal" in="SourceGraphic" in2="effect1_dropShadow_1471:5332" result="shape"/>
</filter>
</defs>
</svg>
