<svg width="23" height="24" viewBox="0 0 23 24"  xmlns="http://www.w3.org/2000/svg">
<path d="M9.16675 0.75H1.66675C1.33523 0.75 1.01728 0.881696 0.782865 1.11612C0.548444 1.35054 0.416748 1.66848 0.416748 2V9.5C0.416748 9.83152 0.548444 10.1495 0.782865 10.3839C1.01728 10.6183 1.33523 10.75 1.66675 10.75H9.16675C9.49827 10.75 9.81621 10.6183 10.0506 10.3839C10.2851 10.1495 10.4167 9.83152 10.4167 9.5V2C10.4167 1.66848 10.2851 1.35054 10.0506 1.11612C9.81621 0.881696 9.49827 0.75 9.16675 0.75ZM7.91675 8.25H2.91675V3.25H7.91675V8.25ZM21.6667 0.75H14.1667C13.8352 0.75 13.5173 0.881696 13.2829 1.11612C13.0484 1.35054 12.9167 1.66848 12.9167 2V9.5C12.9167 9.83152 13.0484 10.1495 13.2829 10.3839C13.5173 10.6183 13.8352 10.75 14.1667 10.75H21.6667C21.9983 10.75 22.3162 10.6183 22.5506 10.3839C22.7851 10.1495 22.9167 9.83152 22.9167 9.5V2C22.9167 1.66848 22.7851 1.35054 22.5506 1.11612C22.3162 0.881696 21.9983 0.75 21.6667 0.75ZM20.4167 8.25H15.4167V3.25H20.4167V8.25ZM9.16675 13.25H1.66675C1.33523 13.25 1.01728 13.3817 0.782865 13.6161C0.548444 13.8505 0.416748 14.1685 0.416748 14.5V22C0.416748 22.3315 0.548444 22.6495 0.782865 22.8839C1.01728 23.1183 1.33523 23.25 1.66675 23.25H9.16675C9.49827 23.25 9.81621 23.1183 10.0506 22.8839C10.2851 22.6495 10.4167 22.3315 10.4167 22V14.5C10.4167 14.1685 10.2851 13.8505 10.0506 13.6161C9.81621 13.3817 9.49827 13.25 9.16675 13.25ZM7.91675 20.75H2.91675V15.75H7.91675V20.75ZM17.9167 13.25C15.1592 13.25 12.9167 15.4925 12.9167 18.25C12.9167 21.0075 15.1592 23.25 17.9167 23.25C20.6742 23.25 22.9167 21.0075 22.9167 18.25C22.9167 15.4925 20.6742 13.25 17.9167 13.25ZM17.9167 20.75C16.538 20.75 15.4167 19.6287 15.4167 18.25C15.4167 16.8713 16.538 15.75 17.9167 15.75C19.2955 15.75 20.4167 16.8713 20.4167 18.25C20.4167 19.6287 19.2955 20.75 17.9167 20.75Z"/>
</svg>
