<svg width="12" height="12" viewBox="0 0 12 12" fill="none" xmlns="http://www.w3.org/2000/svg">
<path d="M1.36901 0.234884C1.05583 -0.0782947 0.548063 -0.0782947 0.234884 0.234884C-0.0782947 0.548063 -0.0782947 1.05583 0.234884 1.36901L4.8659 6.00002L0.234932 10.631C-0.0782466 10.9442 -0.0782469 11.4519 0.234932 11.7651C0.548111 12.0783 1.05587 12.0783 1.36905 11.7651L6.00002 7.13415L10.631 11.7651C10.9442 12.0783 11.4519 12.0783 11.7651 11.7651C12.0783 11.4519 12.0783 10.9442 11.7651 10.631L7.13415 6.00002L11.7652 1.36901C12.0783 1.05583 12.0783 0.548063 11.7652 0.234884C11.452 -0.0782947 10.9442 -0.0782947 10.631 0.234884L6.00002 4.8659L1.36901 0.234884Z" fill="#FF7043"/>
</svg>
