<svg width="256" height="88" viewBox="0 0 256 88" fill="none" xmlns="http://www.w3.org/2000/svg">
<g filter="url(#filter0_d_1471:4148)">
<rect x="6.5" y="6.5" width="223" height="55" rx="9.5" stroke="#FF8A65" shape-rendering="crispEdges"/>
</g>
<path d="M35.9148 34.416C35.9148 33.328 36.1655 32.352 36.6668 31.488C37.1788 30.624 37.8668 29.952 38.7308 29.472C39.6055 28.9813 40.5601 28.736 41.5948 28.736C42.7788 28.736 43.8295 29.0293 44.7468 29.616C45.6748 30.192 46.3468 31.0133 46.7628 32.08H44.5708C44.2828 31.4933 43.8828 31.056 43.3708 30.768C42.8588 30.48 42.2668 30.336 41.5948 30.336C40.8588 30.336 40.2028 30.5013 39.6268 30.832C39.0508 31.1627 38.5975 31.6373 38.2668 32.256C37.9468 32.8747 37.7868 33.5947 37.7868 34.416C37.7868 35.2373 37.9468 35.9573 38.2668 36.576C38.5975 37.1947 39.0508 37.6747 39.6268 38.016C40.2028 38.3467 40.8588 38.512 41.5948 38.512C42.2668 38.512 42.8588 38.368 43.3708 38.08C43.8828 37.792 44.2828 37.3547 44.5708 36.768H46.7628C46.3468 37.8347 45.6748 38.656 44.7468 39.232C43.8295 39.808 42.7788 40.096 41.5948 40.096C40.5495 40.096 39.5948 39.856 38.7308 39.376C37.8668 38.8853 37.1788 38.208 36.6668 37.344C36.1655 36.48 35.9148 35.504 35.9148 34.416ZM53.0418 40.144C52.2098 40.144 51.4578 39.9573 50.7858 39.584C50.1138 39.2 49.5858 38.6667 49.2018 37.984C48.8178 37.2907 48.6258 36.4907 48.6258 35.584C48.6258 34.688 48.8231 33.8933 49.2178 33.2C49.6125 32.5067 50.1511 31.9733 50.8338 31.6C51.5165 31.2267 52.2791 31.04 53.1218 31.04C53.9645 31.04 54.7271 31.2267 55.4098 31.6C56.0925 31.9733 56.6311 32.5067 57.0258 33.2C57.4205 33.8933 57.6178 34.688 57.6178 35.584C57.6178 36.48 57.4151 37.2747 57.0098 37.968C56.6045 38.6613 56.0498 39.2 55.3458 39.584C54.6525 39.9573 53.8845 40.144 53.0418 40.144ZM53.0418 38.56C53.5111 38.56 53.9485 38.448 54.3538 38.224C54.7698 38 55.1058 37.664 55.3618 37.216C55.6178 36.768 55.7458 36.224 55.7458 35.584C55.7458 34.944 55.6231 34.4053 55.3778 33.968C55.1325 33.52 54.8071 33.184 54.4018 32.96C53.9965 32.736 53.5591 32.624 53.0898 32.624C52.6205 32.624 52.1831 32.736 51.7778 32.96C51.3831 33.184 51.0685 33.52 50.8338 33.968C50.5991 34.4053 50.4818 34.944 50.4818 35.584C50.4818 36.5333 50.7218 37.2693 51.2018 37.792C51.6925 38.304 52.3058 38.56 53.0418 38.56ZM64.1889 31.04C64.8823 31.04 65.5009 31.184 66.0449 31.472C66.5996 31.76 67.0316 32.1867 67.3409 32.752C67.6503 33.3173 67.8049 34 67.8049 34.8V40H65.9969V35.072C65.9969 34.2827 65.7996 33.68 65.4049 33.264C65.0103 32.8373 64.4716 32.624 63.7889 32.624C63.1063 32.624 62.5623 32.8373 62.1569 33.264C61.7623 33.68 61.5649 34.2827 61.5649 35.072V40H59.7409V31.184H61.5649V32.192C61.8636 31.8293 62.2423 31.5467 62.7009 31.344C63.1703 31.1413 63.6663 31.04 64.1889 31.04ZM72.5796 32.672V37.552C72.5796 37.8827 72.6542 38.1227 72.8036 38.272C72.9636 38.4107 73.2302 38.48 73.6036 38.48H74.7236V40H73.2836C72.4622 40 71.8329 39.808 71.3956 39.424C70.9582 39.04 70.7396 38.416 70.7396 37.552V32.672H69.6996V31.184H70.7396V28.992H72.5796V31.184H74.7236V32.672H72.5796ZM77.6527 30.016C77.322 30.016 77.0447 29.904 76.8207 29.68C76.5967 29.456 76.4847 29.1787 76.4847 28.848C76.4847 28.5173 76.5967 28.24 76.8207 28.016C77.0447 27.792 77.322 27.68 77.6527 27.68C77.9727 27.68 78.2447 27.792 78.4687 28.016C78.6927 28.24 78.8047 28.5173 78.8047 28.848C78.8047 29.1787 78.6927 29.456 78.4687 29.68C78.2447 29.904 77.9727 30.016 77.6527 30.016ZM78.5487 31.184V40H76.7247V31.184H78.5487ZM85.7114 31.04C86.4048 31.04 87.0234 31.184 87.5674 31.472C88.1221 31.76 88.5541 32.1867 88.8634 32.752C89.1728 33.3173 89.3274 34 89.3274 34.8V40H87.5194V35.072C87.5194 34.2827 87.3221 33.68 86.9274 33.264C86.5328 32.8373 85.9941 32.624 85.3114 32.624C84.6288 32.624 84.0848 32.8373 83.6794 33.264C83.2848 33.68 83.0874 34.2827 83.0874 35.072V40H81.2634V31.184H83.0874V32.192C83.3861 31.8293 83.7648 31.5467 84.2234 31.344C84.6928 31.1413 85.1888 31.04 85.7114 31.04ZM99.9581 31.184V40H98.1341V38.96C97.8461 39.3227 97.4674 39.6107 96.9981 39.824C96.5394 40.0267 96.0487 40.128 95.5261 40.128C94.8327 40.128 94.2087 39.984 93.6541 39.696C93.1101 39.408 92.6781 38.9813 92.3581 38.416C92.0487 37.8507 91.8941 37.168 91.8941 36.368V31.184H93.7021V36.096C93.7021 36.8853 93.8994 37.4933 94.2941 37.92C94.6887 38.336 95.2274 38.544 95.9101 38.544C96.5927 38.544 97.1314 38.336 97.5261 37.92C97.9314 37.4933 98.1341 36.8853 98.1341 36.096V31.184H99.9581ZM110.765 35.376C110.765 35.7067 110.743 36.0053 110.701 36.272H103.965C104.018 36.976 104.279 37.5413 104.749 37.968C105.218 38.3947 105.794 38.608 106.477 38.608C107.458 38.608 108.151 38.1973 108.557 37.376H110.525C110.258 38.1867 109.773 38.8533 109.069 39.376C108.375 39.888 107.511 40.144 106.477 40.144C105.634 40.144 104.877 39.9573 104.205 39.584C103.543 39.2 103.021 38.6667 102.637 37.984C102.263 37.2907 102.077 36.4907 102.077 35.584C102.077 34.6773 102.258 33.8827 102.621 33.2C102.994 32.5067 103.511 31.9733 104.173 31.6C104.845 31.2267 105.613 31.04 106.477 31.04C107.309 31.04 108.05 31.2213 108.701 31.584C109.351 31.9467 109.858 32.4587 110.221 33.12C110.583 33.7707 110.765 34.5227 110.765 35.376ZM108.861 34.8C108.85 34.128 108.61 33.5893 108.141 33.184C107.671 32.7787 107.09 32.576 106.397 32.576C105.767 32.576 105.229 32.7787 104.781 33.184C104.333 33.5787 104.066 34.1173 103.981 34.8H108.861ZM120.556 40.144C119.863 40.144 119.239 40.0213 118.684 39.776C118.14 39.52 117.708 39.1787 117.388 38.752C117.068 38.3147 116.897 37.8293 116.876 37.296H118.764C118.796 37.6693 118.972 37.984 119.292 38.24C119.623 38.4853 120.033 38.608 120.524 38.608C121.036 38.608 121.431 38.512 121.708 38.32C121.996 38.1173 122.14 37.8613 122.14 37.552C122.14 37.2213 121.98 36.976 121.66 36.816C121.351 36.656 120.855 36.48 120.172 36.288C119.511 36.1067 118.972 35.9307 118.556 35.76C118.14 35.5893 117.777 35.328 117.468 34.976C117.169 34.624 117.02 34.16 117.02 33.584C117.02 33.1147 117.159 32.688 117.436 32.304C117.713 31.9093 118.108 31.6 118.62 31.376C119.143 31.152 119.74 31.04 120.412 31.04C121.415 31.04 122.22 31.296 122.828 31.808C123.447 32.3093 123.777 32.9973 123.82 33.872H121.996C121.964 33.4773 121.804 33.1627 121.516 32.928C121.228 32.6933 120.839 32.576 120.348 32.576C119.868 32.576 119.5 32.6667 119.244 32.848C118.988 33.0293 118.86 33.2693 118.86 33.568C118.86 33.8027 118.945 34 119.116 34.16C119.287 34.32 119.495 34.448 119.74 34.544C119.985 34.6293 120.348 34.7413 120.828 34.88C121.468 35.0507 121.991 35.2267 122.396 35.408C122.812 35.5787 123.169 35.8347 123.468 36.176C123.767 36.5173 123.921 36.9707 123.932 37.536C123.932 38.0373 123.793 38.4853 123.516 38.88C123.239 39.2747 122.844 39.584 122.332 39.808C121.831 40.032 121.239 40.144 120.556 40.144ZM130.783 31.04C131.455 31.04 132.052 31.184 132.575 31.472C133.108 31.76 133.524 32.1867 133.823 32.752C134.132 33.3173 134.287 34 134.287 34.8V40H132.479V35.072C132.479 34.2827 132.281 33.68 131.887 33.264C131.492 32.8373 130.953 32.624 130.271 32.624C129.588 32.624 129.044 32.8373 128.639 33.264C128.244 33.68 128.047 34.2827 128.047 35.072V40H126.223V28.16H128.047V32.208C128.356 31.8347 128.745 31.5467 129.215 31.344C129.695 31.1413 130.217 31.04 130.783 31.04ZM140.757 40.144C139.925 40.144 139.173 39.9573 138.501 39.584C137.829 39.2 137.301 38.6667 136.917 37.984C136.533 37.2907 136.341 36.4907 136.341 35.584C136.341 34.688 136.539 33.8933 136.933 33.2C137.328 32.5067 137.867 31.9733 138.549 31.6C139.232 31.2267 139.995 31.04 140.837 31.04C141.68 31.04 142.443 31.2267 143.125 31.6C143.808 31.9733 144.347 32.5067 144.741 33.2C145.136 33.8933 145.333 34.688 145.333 35.584C145.333 36.48 145.131 37.2747 144.725 37.968C144.32 38.6613 143.765 39.2 143.061 39.584C142.368 39.9573 141.6 40.144 140.757 40.144ZM140.757 38.56C141.227 38.56 141.664 38.448 142.069 38.224C142.485 38 142.821 37.664 143.077 37.216C143.333 36.768 143.461 36.224 143.461 35.584C143.461 34.944 143.339 34.4053 143.093 33.968C142.848 33.52 142.523 33.184 142.117 32.96C141.712 32.736 141.275 32.624 140.805 32.624C140.336 32.624 139.899 32.736 139.493 32.96C139.099 33.184 138.784 33.52 138.549 33.968C138.315 34.4053 138.197 34.944 138.197 35.584C138.197 36.5333 138.437 37.2693 138.917 37.792C139.408 38.304 140.021 38.56 140.757 38.56ZM149.281 32.48C149.59 32.0747 150.011 31.7333 150.545 31.456C151.078 31.1787 151.681 31.04 152.353 31.04C153.121 31.04 153.819 31.232 154.449 31.616C155.089 31.9893 155.59 32.5173 155.953 33.2C156.315 33.8827 156.497 34.6667 156.497 35.552C156.497 36.4373 156.315 37.232 155.953 37.936C155.59 38.6293 155.089 39.1733 154.449 39.568C153.819 39.952 153.121 40.144 152.353 40.144C151.681 40.144 151.083 40.0107 150.561 39.744C150.038 39.4667 149.611 39.1253 149.281 38.72V44.192H147.457V31.184H149.281V32.48ZM154.641 35.552C154.641 34.944 154.513 34.4213 154.257 33.984C154.011 33.536 153.681 33.2 153.265 32.976C152.859 32.7413 152.422 32.624 151.953 32.624C151.494 32.624 151.057 32.7413 150.641 32.976C150.235 33.2107 149.905 33.552 149.649 34C149.403 34.448 149.281 34.976 149.281 35.584C149.281 36.192 149.403 36.7253 149.649 37.184C149.905 37.632 150.235 37.9733 150.641 38.208C151.057 38.4427 151.494 38.56 151.953 38.56C152.422 38.56 152.859 38.4427 153.265 38.208C153.681 37.9627 154.011 37.6107 154.257 37.152C154.513 36.6933 154.641 36.16 154.641 35.552ZM160.444 32.48C160.754 32.0747 161.175 31.7333 161.708 31.456C162.242 31.1787 162.844 31.04 163.516 31.04C164.284 31.04 164.983 31.232 165.612 31.616C166.252 31.9893 166.754 32.5173 167.116 33.2C167.479 33.8827 167.66 34.6667 167.66 35.552C167.66 36.4373 167.479 37.232 167.116 37.936C166.754 38.6293 166.252 39.1733 165.612 39.568C164.983 39.952 164.284 40.144 163.516 40.144C162.844 40.144 162.247 40.0107 161.724 39.744C161.202 39.4667 160.775 39.1253 160.444 38.72V44.192H158.62V31.184H160.444V32.48ZM165.804 35.552C165.804 34.944 165.676 34.4213 165.42 33.984C165.175 33.536 164.844 33.2 164.428 32.976C164.023 32.7413 163.586 32.624 163.116 32.624C162.658 32.624 162.22 32.7413 161.804 32.976C161.399 33.2107 161.068 33.552 160.812 34C160.567 34.448 160.444 34.976 160.444 35.584C160.444 36.192 160.567 36.7253 160.812 37.184C161.068 37.632 161.399 37.9733 161.804 38.208C162.22 38.4427 162.658 38.56 163.116 38.56C163.586 38.56 164.023 38.4427 164.428 38.208C164.844 37.9627 165.175 37.6107 165.42 37.152C165.676 36.6933 165.804 36.16 165.804 35.552ZM170.712 30.016C170.381 30.016 170.104 29.904 169.88 29.68C169.656 29.456 169.544 29.1787 169.544 28.848C169.544 28.5173 169.656 28.24 169.88 28.016C170.104 27.792 170.381 27.68 170.712 27.68C171.032 27.68 171.304 27.792 171.528 28.016C171.752 28.24 171.864 28.5173 171.864 28.848C171.864 29.1787 171.752 29.456 171.528 29.68C171.304 29.904 171.032 30.016 170.712 30.016ZM171.608 31.184V40H169.784V31.184H171.608ZM178.771 31.04C179.464 31.04 180.083 31.184 180.627 31.472C181.181 31.76 181.613 32.1867 181.923 32.752C182.232 33.3173 182.387 34 182.387 34.8V40H180.579V35.072C180.579 34.2827 180.381 33.68 179.987 33.264C179.592 32.8373 179.053 32.624 178.371 32.624C177.688 32.624 177.144 32.8373 176.739 33.264C176.344 33.68 176.147 34.2827 176.147 35.072V40H174.323V31.184H176.147V32.192C176.445 31.8293 176.824 31.5467 177.283 31.344C177.752 31.1413 178.248 31.04 178.771 31.04ZM188.585 31.04C189.268 31.04 189.871 31.1787 190.393 31.456C190.927 31.7227 191.343 32.0587 191.641 32.464V31.184H193.481V40.144C193.481 40.9547 193.311 41.6747 192.969 42.304C192.628 42.944 192.132 43.4453 191.481 43.808C190.841 44.1707 190.073 44.352 189.177 44.352C187.983 44.352 186.991 44.0693 186.201 43.504C185.412 42.9493 184.964 42.192 184.857 41.232H186.665C186.804 41.6907 187.097 42.0587 187.545 42.336C188.004 42.624 188.548 42.768 189.177 42.768C189.913 42.768 190.505 42.544 190.953 42.096C191.412 41.648 191.641 40.9973 191.641 40.144V38.672C191.332 39.088 190.911 39.44 190.377 39.728C189.855 40.0053 189.257 40.144 188.585 40.144C187.817 40.144 187.113 39.952 186.473 39.568C185.844 39.1733 185.343 38.6293 184.969 37.936C184.607 37.232 184.425 36.4373 184.425 35.552C184.425 34.6667 184.607 33.8827 184.969 33.2C185.343 32.5173 185.844 31.9893 186.473 31.616C187.113 31.232 187.817 31.04 188.585 31.04ZM191.641 35.584C191.641 34.976 191.513 34.448 191.257 34C191.012 33.552 190.687 33.2107 190.281 32.976C189.876 32.7413 189.439 32.624 188.969 32.624C188.5 32.624 188.063 32.7413 187.657 32.976C187.252 33.2 186.921 33.536 186.665 33.984C186.42 34.4213 186.297 34.944 186.297 35.552C186.297 36.16 186.42 36.6933 186.665 37.152C186.921 37.6107 187.252 37.9627 187.657 38.208C188.073 38.4427 188.511 38.56 188.969 38.56C189.439 38.56 189.876 38.4427 190.281 38.208C190.687 37.9733 191.012 37.632 191.257 37.184C191.513 36.7253 191.641 36.192 191.641 35.584Z" fill="#FF8A65"/>
<defs>
<filter id="filter0_d_1471:4148" x="0" y="0" width="256" height="88" filterUnits="userSpaceOnUse" color-interpolation-filters="sRGB">
<feFlood flood-opacity="0" result="BackgroundImageFix"/>
<feColorMatrix in="SourceAlpha" type="matrix" values="0 0 0 0 0 0 0 0 0 0 0 0 0 0 0 0 0 0 127 0" result="hardAlpha"/>
<feOffset dx="10" dy="10"/>
<feGaussianBlur stdDeviation="8"/>
<feComposite in2="hardAlpha" operator="out"/>
<feColorMatrix type="matrix" values="0 0 0 0 1 0 0 0 0 0.541176 0 0 0 0 0.396078 0 0 0 0.9 0"/>
<feBlend mode="normal" in2="BackgroundImageFix" result="effect1_dropShadow_1471:4148"/>
<feBlend mode="normal" in="SourceGraphic" in2="effect1_dropShadow_1471:4148" result="shape"/>
</filter>
</defs>
</svg>
