<svg width="25" height="25" viewBox="0 0 25 25" fill="none" xmlns="http://www.w3.org/2000/svg">
<path d="M22.3958 8.84167V17.5781C22.3958 19.0885 21.1719 20.3125 19.6614 20.3125H5.33853C4.61333 20.3125 3.91783 20.0244 3.40504 19.5116C2.89224 18.9988 2.60416 18.3033 2.60416 17.5781V8.84167L12.1864 14.1125C12.3818 14.2198 12.6187 14.2198 12.8135 14.1125L22.3958 8.84115V8.84167ZM19.6614 4.6875C20.3752 4.68757 21.0607 4.96675 21.5714 5.4654C22.0822 5.96406 22.3777 6.64266 22.3948 7.35625L12.5 12.799L2.6052 7.35573L2.60624 7.30885C2.63541 6.60378 2.93604 5.93728 3.44525 5.44874C3.95447 4.96019 4.63285 4.68743 5.33853 4.6875H19.6614Z" fill="#FF7043"/>
</svg>
