<svg width="151" height="50" viewBox="0 0 151 50" fill="none" xmlns="http://www.w3.org/2000/svg">
<path d="M0 20C0 8.9543 8.9543 0 20 0H151V30C151 41.0457 142.046 50 131 50H0V20Z" fill="#FF7043"/>
<path d="M21.1305 30.447H26.4205V33H17.9105V16.946H21.1305V30.447ZM40.7722 26.353C40.7722 26.813 40.7415 27.227 40.6802 27.595H31.3652C31.4418 28.515 31.7638 29.2357 32.3312 29.757C32.8985 30.2783 33.5962 30.539 34.4242 30.539C35.6202 30.539 36.4712 30.0253 36.9772 28.998H40.4502C40.0822 30.2247 39.3768 31.2367 38.3342 32.034C37.2915 32.816 36.0112 33.207 34.4932 33.207C33.2665 33.207 32.1625 32.9387 31.1812 32.402C30.2152 31.85 29.4562 31.0757 28.9042 30.079C28.3675 29.0823 28.0992 27.9323 28.0992 26.629C28.0992 25.3103 28.3675 24.1527 28.9042 23.156C29.4408 22.1593 30.1922 21.3927 31.1582 20.856C32.1242 20.3193 33.2358 20.051 34.4932 20.051C35.7045 20.051 36.7855 20.3117 37.7362 20.833C38.7022 21.3543 39.4458 22.098 39.9672 23.064C40.5038 24.0147 40.7722 25.111 40.7722 26.353ZM37.4372 25.433C37.4218 24.605 37.1228 23.9457 36.5402 23.455C35.9575 22.949 35.2445 22.696 34.4012 22.696C33.6038 22.696 32.9292 22.9413 32.3772 23.432C31.8405 23.9073 31.5108 24.5743 31.3882 25.433H37.4372ZM47.3315 22.903V29.067C47.3315 29.4963 47.4312 29.8107 47.6305 30.01C47.8452 30.194 48.1978 30.286 48.6885 30.286H50.1835V33H48.1595C45.4455 33 44.0885 31.6813 44.0885 29.044V22.903H42.5705V20.258H44.0885V17.107H47.3315V20.258H50.1835V22.903H47.3315ZM53.6035 16.946H56.9845L54.5005 22.742H52.2925L53.6035 16.946ZM64.6295 33.207C63.5868 33.207 62.6515 33.023 61.8235 32.655C60.9955 32.2717 60.3361 31.758 59.8455 31.114C59.3701 30.47 59.1095 29.757 59.0635 28.975H62.3065C62.3678 29.4657 62.6055 29.872 63.0195 30.194C63.4488 30.516 63.9778 30.677 64.6065 30.677C65.2198 30.677 65.6951 30.5543 66.0325 30.309C66.3851 30.0637 66.5615 29.7493 66.5615 29.366C66.5615 28.952 66.3468 28.6453 65.9175 28.446C65.5035 28.2313 64.8365 28.0013 63.9165 27.756C62.9658 27.526 62.1838 27.2883 61.5705 27.043C60.9725 26.7977 60.4511 26.422 60.0065 25.916C59.5771 25.41 59.3625 24.7277 59.3625 23.869C59.3625 23.1637 59.5618 22.5197 59.9605 21.937C60.3745 21.3543 60.9571 20.8943 61.7085 20.557C62.4751 20.2197 63.3721 20.051 64.3995 20.051C65.9175 20.051 67.1288 20.4343 68.0335 21.201C68.9381 21.9523 69.4365 22.972 69.5285 24.26H66.4465C66.4005 23.754 66.1858 23.3553 65.8025 23.064C65.4345 22.7573 64.9361 22.604 64.3075 22.604C63.7248 22.604 63.2725 22.7113 62.9505 22.926C62.6438 23.1407 62.4905 23.4397 62.4905 23.823C62.4905 24.2523 62.7051 24.582 63.1345 24.812C63.5638 25.0267 64.2308 25.249 65.1355 25.479C66.0555 25.709 66.8145 25.9467 67.4125 26.192C68.0105 26.4373 68.5241 26.8207 68.9535 27.342C69.3981 27.848 69.6281 28.5227 69.6435 29.366C69.6435 30.102 69.4365 30.7613 69.0225 31.344C68.6238 31.9267 68.0411 32.3867 67.2745 32.724C66.5231 33.046 65.6415 33.207 64.6295 33.207ZM84.2301 33.161C83.1108 33.161 82.0988 32.9693 81.1941 32.586C80.3048 32.2027 79.5995 31.6507 79.0781 30.93C78.5568 30.2093 78.2885 29.3583 78.2731 28.377H81.7231C81.7691 29.0363 81.9991 29.5577 82.4131 29.941C82.8425 30.3243 83.4251 30.516 84.1611 30.516C84.9125 30.516 85.5028 30.3397 85.9321 29.987C86.3615 29.619 86.5761 29.1437 86.5761 28.561C86.5761 28.0857 86.4305 27.6947 86.1391 27.388C85.8478 27.0813 85.4798 26.8437 85.0351 26.675C84.6058 26.491 84.0078 26.2917 83.2411 26.077C82.1985 25.7703 81.3475 25.4713 80.6881 25.18C80.0441 24.8733 79.4845 24.421 79.0091 23.823C78.5491 23.2097 78.3191 22.397 78.3191 21.385C78.3191 20.4343 78.5568 19.6063 79.0321 18.901C79.5075 18.1957 80.1745 17.659 81.0331 17.291C81.8918 16.9077 82.8731 16.716 83.9771 16.716C85.6331 16.716 86.9748 17.1223 88.0021 17.935C89.0448 18.7323 89.6198 19.8517 89.7271 21.293H86.1851C86.1545 20.741 85.9168 20.2887 85.4721 19.936C85.0428 19.568 84.4678 19.384 83.7471 19.384C83.1185 19.384 82.6125 19.545 82.2291 19.867C81.8611 20.189 81.6771 20.6567 81.6771 21.27C81.6771 21.6993 81.8151 22.0597 82.0911 22.351C82.3825 22.627 82.7351 22.857 83.1491 23.041C83.5785 23.2097 84.1765 23.409 84.9431 23.639C85.9858 23.9457 86.8368 24.2523 87.4961 24.559C88.1555 24.8657 88.7228 25.3257 89.1981 25.939C89.6735 26.5523 89.9111 27.3573 89.9111 28.354C89.9111 29.2127 89.6888 30.01 89.2441 30.746C88.7995 31.482 88.1478 32.0723 87.2891 32.517C86.4305 32.9463 85.4108 33.161 84.2301 33.161ZM96.9118 22.903V29.067C96.9118 29.4963 97.0114 29.8107 97.2108 30.01C97.4254 30.194 97.7781 30.286 98.2688 30.286H99.7638V33H97.7398C95.0258 33 93.6688 31.6813 93.6688 29.044V22.903H92.1508V20.258H93.6688V17.107H96.9118V20.258H99.7638V22.903H96.9118ZM101.712 26.583C101.712 25.295 101.965 24.1527 102.471 23.156C102.992 22.1593 103.69 21.3927 104.564 20.856C105.453 20.3193 106.442 20.051 107.531 20.051C108.481 20.051 109.309 20.2427 110.015 20.626C110.735 21.0093 111.31 21.4923 111.74 22.075V20.258H114.983V33H111.74V31.137C111.326 31.735 110.751 32.2333 110.015 32.632C109.294 33.0153 108.458 33.207 107.508 33.207C106.434 33.207 105.453 32.931 104.564 32.379C103.69 31.827 102.992 31.0527 102.471 30.056C101.965 29.044 101.712 27.8863 101.712 26.583ZM111.74 26.629C111.74 25.847 111.586 25.18 111.28 24.628C110.973 24.0607 110.559 23.6313 110.038 23.34C109.516 23.0333 108.957 22.88 108.359 22.88C107.761 22.88 107.209 23.0257 106.703 23.317C106.197 23.6083 105.783 24.0377 105.461 24.605C105.154 25.157 105.001 25.8163 105.001 26.583C105.001 27.3497 105.154 28.0243 105.461 28.607C105.783 29.1743 106.197 29.6113 106.703 29.918C107.224 30.2247 107.776 30.378 108.359 30.378C108.957 30.378 109.516 30.2323 110.038 29.941C110.559 29.6343 110.973 29.205 111.28 28.653C111.586 28.0857 111.74 27.411 111.74 26.629ZM121.808 22.236C122.222 21.5613 122.758 21.0323 123.418 20.649C124.092 20.2657 124.859 20.074 125.718 20.074V23.455H124.867C123.855 23.455 123.088 23.6927 122.567 24.168C122.061 24.6433 121.808 25.4713 121.808 26.652V33H118.588V20.258H121.808V22.236ZM132.095 22.903V29.067C132.095 29.4963 132.195 29.8107 132.394 30.01C132.609 30.194 132.962 30.286 133.452 30.286H134.947V33H132.923C130.209 33 128.852 31.6813 128.852 29.044V22.903H127.334V20.258H128.852V17.107H132.095V20.258H134.947V22.903H132.095Z" fill="white"/>
</svg>
