<svg width="15" height="15" viewBox="0 0 15 15" fill="none" xmlns="http://www.w3.org/2000/svg">
<path d="M13.0571 3.00739C12.7378 2.68802 12.3588 2.43467 11.9417 2.26182C11.5245 2.08897 11.0774 2 10.6258 2C10.1743 2 9.72712 2.08897 9.30996 2.26182C8.8928 2.43467 8.51378 2.68802 8.19456 3.00739L7.53206 3.66989L6.86956 3.00739C6.22475 2.36258 5.3502 2.00033 4.43831 2.00033C3.52641 2.00033 2.65186 2.36258 2.00706 3.00739C1.36225 3.6522 1 4.52675 1 5.43864C1 6.35054 1.36225 7.22508 2.00706 7.86989L2.66956 8.53239L7.53206 13.3949L12.3946 8.53239L13.0571 7.86989C13.3764 7.55067 13.6298 7.17165 13.8026 6.75449C13.9755 6.33733 14.0644 5.8902 14.0644 5.43864C14.0644 4.98709 13.9755 4.53996 13.8026 4.12279C13.6298 3.70563 13.3764 3.32661 13.0571 3.00739Z" fill="#FF046A" stroke="#FF046A" stroke-linecap="round" stroke-linejoin="round"/>
</svg>
