<svg width="15" height="15" viewBox="0 0 15 15" fill="none" xmlns="http://www.w3.org/2000/svg">
<path d="M13.0251 2.88141C12.7059 2.56204 12.3268 2.30869 11.9097 2.13584C11.4925 1.96299 11.0454 1.87402 10.5938 1.87402C10.1423 1.87402 9.69514 1.96299 9.27798 2.13584C8.86082 2.30869 8.4818 2.56204 8.16257 2.88141L7.50007 3.54391L6.83757 2.88141C6.19277 2.23661 5.31822 1.87436 4.40632 1.87436C3.49443 1.87436 2.61988 2.23661 1.97507 2.88141C1.33027 3.52622 0.968018 4.40077 0.968018 5.31266C0.968018 6.22456 1.33027 7.09911 1.97507 7.74391L2.63757 8.40641L7.50007 13.2689L12.3626 8.40641L13.0251 7.74391C13.3444 7.42469 13.5978 7.04567 13.7706 6.62851C13.9435 6.21135 14.0325 5.76422 14.0325 5.31266C14.0325 4.86111 13.9435 4.41398 13.7706 3.99682C13.5978 3.57966 13.3444 3.20064 13.0251 2.88141V2.88141Z" stroke="#2A3757" stroke-opacity="0.8" stroke-linecap="round" stroke-linejoin="round"/>
</svg>
