<!-- <svg width="24" height="24" viewBox="0 0 24 24"  xmlns="http://www.w3.org/2000/svg">
<path d="M3 9L12 2L21 9V20C21 20.5304 20.7893 21.0391 20.4142 21.4142C20.0391 21.7893 19.5304 22 19 22H5C4.46957 22 3.96086 21.7893 3.58579 21.4142C3.21071 21.0391 3 20.5304 3 20V9Z"  stroke-width="2" stroke-linecap="round" stroke-linejoin="round"/>
<path d="M9 22V12H15V22"  stroke-width="2" stroke-linecap="round" stroke-linejoin="round"/>
</svg> -->

<svg  xmlns="http://www.w3.org/2000/svg"  viewBox="0 0 24 24" width="24px" height="24px"><path d="M 12 2.0996094 L 1 12 L 4 12 L 4 21 L 11 21 L 11 15 L 13 15 L 13 21 L 20 21 L 20 12 L 23 12 L 12 2.0996094 z M 12 4.7910156 L 18 10.191406 L 18 11 L 18 19 L 15 19 L 15 13 L 9 13 L 9 19 L 6 19 L 6 10.191406 L 12 4.7910156 z"/></svg>