<svg width="19" height="24" viewBox="0 0 19 24"  xmlns="http://www.w3.org/2000/svg">
<path d="M7.08325 3.09355e-07H11.5833C12.0487 -0.00024372 12.5028 0.143892 12.883 0.412542C13.2631 0.681193 13.5506 1.06113 13.7058 1.5H16.0833C16.68 1.5 17.2523 1.73705 17.6742 2.15901C18.0962 2.58097 18.3333 3.15326 18.3333 3.75V21.75C18.3333 22.3467 18.0962 22.919 17.6742 23.341C17.2523 23.7629 16.68 24 16.0833 24H2.58325C1.98651 24 1.41422 23.7629 0.992261 23.341C0.570305 22.919 0.333252 22.3467 0.333252 21.75V3.75C0.333252 3.15326 0.570305 2.58097 0.992261 2.15901C1.41422 1.73705 1.98651 1.5 2.58325 1.5H4.96075C5.11591 1.06113 5.40338 0.681193 5.78352 0.412542C6.16366 0.143892 6.61776 -0.00024372 7.08325 3.09355e-07ZM6.33325 2.25C6.33325 2.44891 6.41227 2.63968 6.55292 2.78033C6.69357 2.92098 6.88434 3 7.08325 3H11.5833C11.7822 3 11.9729 2.92098 12.1136 2.78033C12.2542 2.63968 12.3333 2.44891 12.3333 2.25C12.3333 2.05109 12.2542 1.86032 12.1136 1.71967C11.9729 1.57902 11.7822 1.5 11.5833 1.5H7.08325C6.88434 1.5 6.69357 1.57902 6.55292 1.71967C6.41227 1.86032 6.33325 2.05109 6.33325 2.25ZM13.4583 10.875C13.7566 10.875 14.0428 10.7565 14.2537 10.5455C14.4647 10.3345 14.5833 10.0484 14.5833 9.75C14.5833 9.45163 14.4647 9.16548 14.2537 8.9545C14.0428 8.74353 13.7566 8.625 13.4583 8.625C13.1599 8.625 12.8737 8.74353 12.6628 8.9545C12.4518 9.16548 12.3333 9.45163 12.3333 9.75C12.3333 10.0484 12.4518 10.3345 12.6628 10.5455C12.8737 10.7565 13.1599 10.875 13.4583 10.875ZM13.4583 15.375C13.7566 15.375 14.0428 15.2565 14.2537 15.0455C14.4647 14.8345 14.5833 14.5484 14.5833 14.25C14.5833 13.9516 14.4647 13.6655 14.2537 13.4545C14.0428 13.2435 13.7566 13.125 13.4583 13.125C13.1599 13.125 12.8737 13.2435 12.6628 13.4545C12.4518 13.6655 12.3333 13.9516 12.3333 14.25C12.3333 14.5484 12.4518 14.8345 12.6628 15.0455C12.8737 15.2565 13.1599 15.375 13.4583 15.375ZM12.3333 18.75C12.3333 19.0484 12.4518 19.3345 12.6628 19.5455C12.8737 19.7565 13.1599 19.875 13.4583 19.875C13.7566 19.875 14.0428 19.7565 14.2537 19.5455C14.4647 19.3345 14.5833 19.0484 14.5833 18.75C14.5833 18.4516 14.4647 18.1655 14.2537 17.9545C14.0428 17.7435 13.7566 17.625 13.4583 17.625C13.1599 17.625 12.8737 17.7435 12.6628 17.9545C12.4518 18.1655 12.3333 18.4516 12.3333 18.75ZM10.8333 9.75C10.8333 9.55109 10.7542 9.36032 10.6136 9.21967C10.4729 9.07902 10.2822 9 10.0833 9H4.83325C4.63434 9 4.44357 9.07902 4.30292 9.21967C4.16227 9.36032 4.08325 9.55109 4.08325 9.75C4.08325 9.94891 4.16227 10.1397 4.30292 10.2803C4.44357 10.421 4.63434 10.5 4.83325 10.5H10.0833C10.2822 10.5 10.4729 10.421 10.6136 10.2803C10.7542 10.1397 10.8333 9.94891 10.8333 9.75ZM10.8333 14.25C10.8333 14.0511 10.7542 13.8603 10.6136 13.7197C10.4729 13.579 10.2822 13.5 10.0833 13.5H4.83325C4.63434 13.5 4.44357 13.579 4.30292 13.7197C4.16227 13.8603 4.08325 14.0511 4.08325 14.25C4.08325 14.4489 4.16227 14.6397 4.30292 14.7803C4.44357 14.921 4.63434 15 4.83325 15H10.0833C10.2822 15 10.4729 14.921 10.6136 14.7803C10.7542 14.6397 10.8333 14.4489 10.8333 14.25ZM10.8333 18.75C10.8333 18.5511 10.7542 18.3603 10.6136 18.2197C10.4729 18.079 10.2822 18 10.0833 18H4.83325C4.63434 18 4.44357 18.079 4.30292 18.2197C4.16227 18.3603 4.08325 18.5511 4.08325 18.75C4.08325 18.9489 4.16227 19.1397 4.30292 19.2803C4.44357 19.421 4.63434 19.5 4.83325 19.5H10.0833C10.2822 19.5 10.4729 19.421 10.6136 19.2803C10.7542 19.1397 10.8333 18.9489 10.8333 18.75Z" />
</svg>
