<svg width="30" height="30" viewBox="0 0 30 30"  xmlns="http://www.w3.org/2000/svg">
<path d="M10 7C10 5.67392 10.5268 4.40215 11.4645 3.46447C12.4021 2.52678 13.6739 2 15 2C16.3261 2 17.5979 2.52678 18.5355 3.46447C19.4732 4.40215 20 5.67392 20 7V8H22V7C22 5.14348 21.2625 3.36301 19.9497 2.05025C18.637 0.737498 16.8565 0 15 0C13.1435 0 11.363 0.737498 10.0503 2.05025C8.7375 3.36301 8 5.14348 8 7V8H10V7Z" />
<path d="M4.07243 12.668C4.15413 11.9343 4.50348 11.2565 5.05366 10.7642C5.60383 10.272 6.31619 9.99989 7.05443 10H23.4744C24.2123 10.0004 24.9242 10.2727 25.4739 10.7649C26.0237 11.2571 26.3728 11.9346 26.4544 12.668L28.0124 26.668C28.0591 27.0874 28.0168 27.512 27.8883 27.9139C27.7597 28.3159 27.5478 28.6862 27.2663 29.0007C26.9849 29.3151 26.6403 29.5667 26.255 29.7389C25.8697 29.9111 25.4524 30.0001 25.0304 30H5.49843C5.07658 29.9998 4.65953 29.9106 4.27448 29.7383C3.88944 29.5659 3.54507 29.3144 3.26386 28.9999C2.98264 28.6855 2.77089 28.3153 2.64245 27.9135C2.514 27.5116 2.47174 27.0873 2.51843 26.668L4.07243 12.668Z" />
</svg>
