<svg width="181" height="50" viewBox="0 0 181 50" fill="none" xmlns="http://www.w3.org/2000/svg">
<path d="M0 20C0 8.9543 8.9543 0 20 0H181V30C181 41.0457 172.046 50 161 50H0V20Z" fill="#FF7043"/>
<path d="M27.4203 33H24.2003L16.9093 21.983V33H13.6893V16.923H16.9093L24.2003 27.963V16.923H27.4203V33ZM42.9074 26.353C42.9074 26.813 42.8768 27.227 42.8154 27.595H33.5004C33.5771 28.515 33.8991 29.2357 34.4664 29.757C35.0338 30.2783 35.7314 30.539 36.5594 30.539C37.7554 30.539 38.6064 30.0253 39.1124 28.998H42.5854C42.2174 30.2247 41.5121 31.2367 40.4694 32.034C39.4268 32.816 38.1464 33.207 36.6284 33.207C35.4018 33.207 34.2978 32.9387 33.3164 32.402C32.3504 31.85 31.5914 31.0757 31.0394 30.079C30.5028 29.0823 30.2344 27.9323 30.2344 26.629C30.2344 25.3103 30.5028 24.1527 31.0394 23.156C31.5761 22.1593 32.3274 21.3927 33.2934 20.856C34.2594 20.3193 35.3711 20.051 36.6284 20.051C37.8398 20.051 38.9208 20.3117 39.8714 20.833C40.8374 21.3543 41.5811 22.098 42.1024 23.064C42.6391 24.0147 42.9074 25.111 42.9074 26.353ZM39.5724 25.433C39.5571 24.605 39.2581 23.9457 38.6754 23.455C38.0928 22.949 37.3798 22.696 36.5364 22.696C35.7391 22.696 35.0644 22.9413 34.5124 23.432C33.9758 23.9073 33.6461 24.5743 33.5234 25.433H39.5724ZM63.3817 20.258L59.6557 33H56.1827L53.8597 24.099L51.5367 33H48.0407L44.2917 20.258H47.5577L49.8117 29.964L52.2497 20.258H55.6537L58.0457 29.941L60.2997 20.258H63.3817ZM81.3685 29.941H74.9745L73.9165 33H70.5355L76.3085 16.923H80.0575L85.8305 33H82.4265L81.3685 29.941ZM80.4945 27.365L78.1715 20.649L75.8485 27.365H80.4945ZM87.6203 26.583C87.6203 25.295 87.8733 24.1527 88.3793 23.156C88.9007 22.1593 89.606 21.3927 90.4953 20.856C91.3847 20.3193 92.3737 20.051 93.4623 20.051C94.2903 20.051 95.08 20.235 95.8313 20.603C96.5827 20.9557 97.1807 21.431 97.6253 22.029V15.98H100.891V33H97.6253V31.114C97.2267 31.7427 96.667 32.2487 95.9463 32.632C95.2257 33.0153 94.39 33.207 93.4393 33.207C92.366 33.207 91.3847 32.931 90.4953 32.379C89.606 31.827 88.9007 31.0527 88.3793 30.056C87.8733 29.044 87.6203 27.8863 87.6203 26.583ZM97.6483 26.629C97.6483 25.847 97.495 25.18 97.1883 24.628C96.8817 24.0607 96.4677 23.6313 95.9463 23.34C95.425 23.0333 94.8653 22.88 94.2673 22.88C93.6693 22.88 93.1173 23.0257 92.6113 23.317C92.1053 23.6083 91.6913 24.0377 91.3693 24.605C91.0627 25.157 90.9093 25.8163 90.9093 26.583C90.9093 27.3497 91.0627 28.0243 91.3693 28.607C91.6913 29.1743 92.1053 29.6113 92.6113 29.918C93.1327 30.2247 93.6847 30.378 94.2673 30.378C94.8653 30.378 95.425 30.2323 95.9463 29.941C96.4677 29.6343 96.8817 29.205 97.1883 28.653C97.495 28.0857 97.6483 27.411 97.6483 26.629ZM103.668 26.583C103.668 25.295 103.921 24.1527 104.427 23.156C104.949 22.1593 105.654 21.3927 106.543 20.856C107.433 20.3193 108.422 20.051 109.51 20.051C110.338 20.051 111.128 20.235 111.879 20.603C112.631 20.9557 113.229 21.431 113.673 22.029V15.98H116.939V33H113.673V31.114C113.275 31.7427 112.715 32.2487 111.994 32.632C111.274 33.0153 110.438 33.207 109.487 33.207C108.414 33.207 107.433 32.931 106.543 32.379C105.654 31.827 104.949 31.0527 104.427 30.056C103.921 29.044 103.668 27.8863 103.668 26.583ZM113.696 26.629C113.696 25.847 113.543 25.18 113.236 24.628C112.93 24.0607 112.516 23.6313 111.994 23.34C111.473 23.0333 110.913 22.88 110.315 22.88C109.717 22.88 109.165 23.0257 108.659 23.317C108.153 23.6083 107.739 24.0377 107.417 24.605C107.111 25.157 106.957 25.8163 106.957 26.583C106.957 27.3497 107.111 28.0243 107.417 28.607C107.739 29.1743 108.153 29.6113 108.659 29.918C109.181 30.2247 109.733 30.378 110.315 30.378C110.913 30.378 111.473 30.2323 111.994 29.941C112.516 29.6343 112.93 29.205 113.236 28.653C113.543 28.0857 113.696 27.411 113.696 26.629ZM123.764 22.236C124.178 21.5613 124.715 21.0323 125.374 20.649C126.049 20.2657 126.815 20.074 127.674 20.074V23.455H126.823C125.811 23.455 125.044 23.6927 124.523 24.168C124.017 24.6433 123.764 25.4713 123.764 26.652V33H120.544V20.258H123.764V22.236ZM142.148 26.353C142.148 26.813 142.117 27.227 142.056 27.595H132.741C132.818 28.515 133.14 29.2357 133.707 29.757C134.274 30.2783 134.972 30.539 135.8 30.539C136.996 30.539 137.847 30.0253 138.353 28.998H141.826C141.458 30.2247 140.753 31.2367 139.71 32.034C138.667 32.816 137.387 33.207 135.869 33.207C134.642 33.207 133.538 32.9387 132.557 32.402C131.591 31.85 130.832 31.0757 130.28 30.079C129.743 29.0823 129.475 27.9323 129.475 26.629C129.475 25.3103 129.743 24.1527 130.28 23.156C130.817 22.1593 131.568 21.3927 132.534 20.856C133.5 20.3193 134.612 20.051 135.869 20.051C137.08 20.051 138.161 20.3117 139.112 20.833C140.078 21.3543 140.822 22.098 141.343 23.064C141.88 24.0147 142.148 25.111 142.148 26.353ZM138.813 25.433C138.798 24.605 138.499 23.9457 137.916 23.455C137.333 22.949 136.62 22.696 135.777 22.696C134.98 22.696 134.305 22.9413 133.753 23.432C133.216 23.9073 132.887 24.5743 132.764 25.433H138.813ZM149.834 33.207C148.792 33.207 147.856 33.023 147.028 32.655C146.2 32.2717 145.541 31.758 145.05 31.114C144.575 30.47 144.314 29.757 144.268 28.975H147.511C147.573 29.4657 147.81 29.872 148.224 30.194C148.654 30.516 149.183 30.677 149.811 30.677C150.425 30.677 150.9 30.5543 151.237 30.309C151.59 30.0637 151.766 29.7493 151.766 29.366C151.766 28.952 151.552 28.6453 151.122 28.446C150.708 28.2313 150.041 28.0013 149.121 27.756C148.171 27.526 147.389 27.2883 146.775 27.043C146.177 26.7977 145.656 26.422 145.211 25.916C144.782 25.41 144.567 24.7277 144.567 23.869C144.567 23.1637 144.767 22.5197 145.165 21.937C145.579 21.3543 146.162 20.8943 146.913 20.557C147.68 20.2197 148.577 20.051 149.604 20.051C151.122 20.051 152.334 20.4343 153.238 21.201C154.143 21.9523 154.641 22.972 154.733 24.26H151.651C151.605 23.754 151.391 23.3553 151.007 23.064C150.639 22.7573 150.141 22.604 149.512 22.604C148.93 22.604 148.477 22.7113 148.155 22.926C147.849 23.1407 147.695 23.4397 147.695 23.823C147.695 24.2523 147.91 24.582 148.339 24.812C148.769 25.0267 149.436 25.249 150.34 25.479C151.26 25.709 152.019 25.9467 152.617 26.192C153.215 26.4373 153.729 26.8207 154.158 27.342C154.603 27.848 154.833 28.5227 154.848 29.366C154.848 30.102 154.641 30.7613 154.227 31.344C153.829 31.9267 153.246 32.3867 152.479 32.724C151.728 33.046 150.846 33.207 149.834 33.207ZM162.827 33.207C161.785 33.207 160.849 33.023 160.021 32.655C159.193 32.2717 158.534 31.758 158.043 31.114C157.568 30.47 157.307 29.757 157.261 28.975H160.504C160.566 29.4657 160.803 29.872 161.217 30.194C161.647 30.516 162.176 30.677 162.804 30.677C163.418 30.677 163.893 30.5543 164.23 30.309C164.583 30.0637 164.759 29.7493 164.759 29.366C164.759 28.952 164.545 28.6453 164.115 28.446C163.701 28.2313 163.034 28.0013 162.114 27.756C161.164 27.526 160.382 27.2883 159.768 27.043C159.17 26.7977 158.649 26.422 158.204 25.916C157.775 25.41 157.56 24.7277 157.56 23.869C157.56 23.1637 157.76 22.5197 158.158 21.937C158.572 21.3543 159.155 20.8943 159.906 20.557C160.673 20.2197 161.57 20.051 162.597 20.051C164.115 20.051 165.327 20.4343 166.231 21.201C167.136 21.9523 167.634 22.972 167.726 24.26H164.644C164.598 23.754 164.384 23.3553 164 23.064C163.632 22.7573 163.134 22.604 162.505 22.604C161.923 22.604 161.47 22.7113 161.148 22.926C160.842 23.1407 160.688 23.4397 160.688 23.823C160.688 24.2523 160.903 24.582 161.332 24.812C161.762 25.0267 162.429 25.249 163.333 25.479C164.253 25.709 165.012 25.9467 165.61 26.192C166.208 26.4373 166.722 26.8207 167.151 27.342C167.596 27.848 167.826 28.5227 167.841 29.366C167.841 30.102 167.634 30.7613 167.22 31.344C166.822 31.9267 166.239 32.3867 165.472 32.724C164.721 33.046 163.839 33.207 162.827 33.207Z" fill="white"/>
</svg>
