<svg width="151" height="50" viewBox="0 0 151 50" fill="none" xmlns="http://www.w3.org/2000/svg">
<path d="M0 20C0 8.9543 8.9543 0 20 0H151V30C151 41.0457 142.046 50 131 50H0V20Z" fill="#FF7043"/>
<path d="M36.3254 33L32.7834 26.744H31.2654V33H28.0454V16.946H34.0714C35.3134 16.946 36.3714 17.1683 37.2454 17.613C38.1194 18.0423 38.771 18.6327 39.2004 19.384C39.645 20.12 39.8674 20.948 39.8674 21.868C39.8674 22.926 39.5607 23.8843 38.9474 24.743C38.334 25.5863 37.4217 26.169 36.2104 26.491L40.0514 33H36.3254ZM31.2654 24.329H33.9564C34.8304 24.329 35.482 24.122 35.9114 23.708C36.3407 23.2787 36.5554 22.6883 36.5554 21.937C36.5554 21.201 36.3407 20.6337 35.9114 20.235C35.482 19.821 34.8304 19.614 33.9564 19.614H31.2654V24.329ZM55.0847 26.353C55.0847 26.813 55.0541 27.227 54.9927 27.595H45.6777C45.7544 28.515 46.0764 29.2357 46.6437 29.757C47.2111 30.2783 47.9087 30.539 48.7367 30.539C49.9327 30.539 50.7837 30.0253 51.2897 28.998H54.7627C54.3947 30.2247 53.6894 31.2367 52.6467 32.034C51.6041 32.816 50.3237 33.207 48.8057 33.207C47.5791 33.207 46.4751 32.9387 45.4937 32.402C44.5277 31.85 43.7687 31.0757 43.2167 30.079C42.6801 29.0823 42.4117 27.9323 42.4117 26.629C42.4117 25.3103 42.6801 24.1527 43.2167 23.156C43.7534 22.1593 44.5047 21.3927 45.4707 20.856C46.4367 20.3193 47.5484 20.051 48.8057 20.051C50.0171 20.051 51.0981 20.3117 52.0487 20.833C53.0147 21.3543 53.7584 22.098 54.2797 23.064C54.8164 24.0147 55.0847 25.111 55.0847 26.353ZM51.7497 25.433C51.7344 24.605 51.4354 23.9457 50.8527 23.455C50.2701 22.949 49.5571 22.696 48.7137 22.696C47.9164 22.696 47.2417 22.9413 46.6897 23.432C46.1531 23.9073 45.8234 24.5743 45.7007 25.433H51.7497ZM62.886 20.051C63.8367 20.051 64.6724 20.2427 65.393 20.626C66.1137 20.994 66.681 21.477 67.095 22.075V20.258H70.338V33.092C70.338 34.2727 70.1004 35.323 69.625 36.243C69.1497 37.1783 68.4367 37.9143 67.486 38.451C66.5354 39.003 65.3854 39.279 64.036 39.279C62.2267 39.279 60.7394 38.8573 59.574 38.014C58.424 37.1707 57.7724 36.0207 57.619 34.564H60.816C60.9847 35.1467 61.345 35.6067 61.897 35.944C62.4644 36.2967 63.1467 36.473 63.944 36.473C64.8794 36.473 65.6384 36.1893 66.221 35.622C66.8037 35.07 67.095 34.2267 67.095 33.092V31.114C66.681 31.712 66.106 32.2103 65.37 32.609C64.6494 33.0077 63.8214 33.207 62.886 33.207C61.8127 33.207 60.8314 32.931 59.942 32.379C59.0527 31.827 58.3474 31.0527 57.826 30.056C57.32 29.044 57.067 27.8863 57.067 26.583C57.067 25.295 57.32 24.1527 57.826 23.156C58.3474 22.1593 59.045 21.3927 59.919 20.856C60.8084 20.3193 61.7974 20.051 62.886 20.051ZM67.095 26.629C67.095 25.847 66.9417 25.18 66.635 24.628C66.3284 24.0607 65.9144 23.6313 65.393 23.34C64.8717 23.0333 64.312 22.88 63.714 22.88C63.116 22.88 62.564 23.0257 62.058 23.317C61.552 23.6083 61.138 24.0377 60.816 24.605C60.5094 25.157 60.356 25.8163 60.356 26.583C60.356 27.3497 60.5094 28.0243 60.816 28.607C61.138 29.1743 61.552 29.6113 62.058 29.918C62.5794 30.2247 63.1314 30.378 63.714 30.378C64.312 30.378 64.8717 30.2323 65.393 29.941C65.9144 29.6343 66.3284 29.205 66.635 28.653C66.9417 28.0857 67.095 27.411 67.095 26.629ZM75.5759 18.74C75.0086 18.74 74.5333 18.5637 74.1499 18.211C73.7819 17.843 73.5979 17.3907 73.5979 16.854C73.5979 16.3173 73.7819 15.8727 74.1499 15.52C74.5333 15.152 75.0086 14.968 75.5759 14.968C76.1433 14.968 76.6109 15.152 76.9789 15.52C77.3623 15.8727 77.5539 16.3173 77.5539 16.854C77.5539 17.3907 77.3623 17.843 76.9789 18.211C76.6109 18.5637 76.1433 18.74 75.5759 18.74ZM77.1629 20.258V33H73.9429V20.258H77.1629ZM85.6803 33.207C84.6376 33.207 83.7023 33.023 82.8743 32.655C82.0463 32.2717 81.387 31.758 80.8963 31.114C80.421 30.47 80.1603 29.757 80.1143 28.975H83.3573C83.4186 29.4657 83.6563 29.872 84.0703 30.194C84.4996 30.516 85.0286 30.677 85.6573 30.677C86.2706 30.677 86.746 30.5543 87.0833 30.309C87.436 30.0637 87.6123 29.7493 87.6123 29.366C87.6123 28.952 87.3976 28.6453 86.9683 28.446C86.5543 28.2313 85.8873 28.0013 84.9673 27.756C84.0166 27.526 83.2346 27.2883 82.6213 27.043C82.0233 26.7977 81.502 26.422 81.0573 25.916C80.628 25.41 80.4133 24.7277 80.4133 23.869C80.4133 23.1637 80.6126 22.5197 81.0113 21.937C81.4253 21.3543 82.008 20.8943 82.7593 20.557C83.526 20.2197 84.423 20.051 85.4503 20.051C86.9683 20.051 88.1796 20.4343 89.0843 21.201C89.989 21.9523 90.4873 22.972 90.5793 24.26H87.4973C87.4513 23.754 87.2366 23.3553 86.8533 23.064C86.4853 22.7573 85.987 22.604 85.3583 22.604C84.7756 22.604 84.3233 22.7113 84.0013 22.926C83.6946 23.1407 83.5413 23.4397 83.5413 23.823C83.5413 24.2523 83.756 24.582 84.1853 24.812C84.6146 25.0267 85.2816 25.249 86.1863 25.479C87.1063 25.709 87.8653 25.9467 88.4633 26.192C89.0613 26.4373 89.575 26.8207 90.0043 27.342C90.449 27.848 90.679 28.5227 90.6943 29.366C90.6943 30.102 90.4873 30.7613 90.0733 31.344C89.6746 31.9267 89.092 32.3867 88.3253 32.724C87.574 33.046 86.6923 33.207 85.6803 33.207ZM97.5465 22.903V29.067C97.5465 29.4963 97.6462 29.8107 97.8455 30.01C98.0602 30.194 98.4128 30.286 98.9035 30.286H100.399V33H98.3745C95.6605 33 94.3035 31.6813 94.3035 29.044V22.903H92.7855V20.258H94.3035V17.107H97.5465V20.258H100.399V22.903H97.5465ZM115.02 26.353C115.02 26.813 114.989 27.227 114.928 27.595H105.613C105.689 28.515 106.011 29.2357 106.579 29.757C107.146 30.2783 107.844 30.539 108.672 30.539C109.868 30.539 110.719 30.0253 111.225 28.998H114.698C114.33 30.2247 113.624 31.2367 112.582 32.034C111.539 32.816 110.259 33.207 108.741 33.207C107.514 33.207 106.41 32.9387 105.429 32.402C104.463 31.85 103.704 31.0757 103.152 30.079C102.615 29.0823 102.347 27.9323 102.347 26.629C102.347 25.3103 102.615 24.1527 103.152 23.156C103.688 22.1593 104.44 21.3927 105.406 20.856C106.372 20.3193 107.483 20.051 108.741 20.051C109.952 20.051 111.033 20.3117 111.984 20.833C112.95 21.3543 113.693 22.098 114.215 23.064C114.751 24.0147 115.02 25.111 115.02 26.353ZM111.685 25.433C111.669 24.605 111.37 23.9457 110.788 23.455C110.205 22.949 109.492 22.696 108.649 22.696C107.851 22.696 107.177 22.9413 106.625 23.432C106.088 23.9073 105.758 24.5743 105.636 25.433H111.685ZM121.05 22.236C121.464 21.5613 122 21.0323 122.66 20.649C123.334 20.2657 124.101 20.074 124.96 20.074V23.455H124.109C123.097 23.455 122.33 23.6927 121.809 24.168C121.303 24.6433 121.05 25.4713 121.05 26.652V33H117.83V20.258H121.05V22.236Z" fill="white"/>
</svg>
