<svg width="159" height="58" viewBox="0 0 159 58" fill="none" xmlns="http://www.w3.org/2000/svg">
<g filter="url(#filter0_d)">
<path d="M4 20C4 8.9543 12.9543 0 24 0H155V30C155 41.0457 146.046 50 135 50H4V20Z" fill="#FF7043"/>
<path d="M30.6142 33.161C29.4949 33.161 28.4829 32.9693 27.5782 32.586C26.6889 32.2027 25.9836 31.6507 25.4622 30.93C24.9409 30.2093 24.6726 29.3583 24.6572 28.377H28.1072C28.1532 29.0363 28.3832 29.5577 28.7972 29.941C29.2266 30.3243 29.8092 30.516 30.5452 30.516C31.2966 30.516 31.8869 30.3397 32.3162 29.987C32.7456 29.619 32.9602 29.1437 32.9602 28.561C32.9602 28.0857 32.8146 27.6947 32.5232 27.388C32.2319 27.0813 31.8639 26.8437 31.4192 26.675C30.9899 26.491 30.3919 26.2917 29.6252 26.077C28.5826 25.7703 27.7316 25.4713 27.0722 25.18C26.4282 24.8733 25.8686 24.421 25.3932 23.823C24.9332 23.2097 24.7032 22.397 24.7032 21.385C24.7032 20.4343 24.9409 19.6063 25.4162 18.901C25.8916 18.1957 26.5586 17.659 27.4172 17.291C28.2759 16.9077 29.2572 16.716 30.3612 16.716C32.0172 16.716 33.3589 17.1223 34.3862 17.935C35.4289 18.7323 36.0039 19.8517 36.1112 21.293H32.5692C32.5386 20.741 32.3009 20.2887 31.8562 19.936C31.4269 19.568 30.8519 19.384 30.1312 19.384C29.5026 19.384 28.9966 19.545 28.6132 19.867C28.2452 20.189 28.0612 20.6567 28.0612 21.27C28.0612 21.6993 28.1992 22.0597 28.4752 22.351C28.7666 22.627 29.1192 22.857 29.5332 23.041C29.9626 23.2097 30.5606 23.409 31.3272 23.639C32.3699 23.9457 33.2209 24.2523 33.8802 24.559C34.5396 24.8657 35.1069 25.3257 35.5822 25.939C36.0576 26.5523 36.2952 27.3573 36.2952 28.354C36.2952 29.2127 36.0729 30.01 35.6282 30.746C35.1836 31.482 34.5319 32.0723 33.6732 32.517C32.8146 32.9463 31.7949 33.161 30.6142 33.161ZM51.3919 26.353C51.3919 26.813 51.3612 27.227 51.2999 27.595H41.9849C42.0615 28.515 42.3835 29.2357 42.9509 29.757C43.5182 30.2783 44.2159 30.539 45.0439 30.539C46.2399 30.539 47.0909 30.0253 47.5969 28.998H51.0699C50.7019 30.2247 49.9965 31.2367 48.9539 32.034C47.9112 32.816 46.6309 33.207 45.1129 33.207C43.8862 33.207 42.7822 32.9387 41.8009 32.402C40.8349 31.85 40.0759 31.0757 39.5239 30.079C38.9872 29.0823 38.7189 27.9323 38.7189 26.629C38.7189 25.3103 38.9872 24.1527 39.5239 23.156C40.0605 22.1593 40.8119 21.3927 41.7779 20.856C42.7439 20.3193 43.8555 20.051 45.1129 20.051C46.3242 20.051 47.4052 20.3117 48.3559 20.833C49.3219 21.3543 50.0655 22.098 50.5869 23.064C51.1235 24.0147 51.3919 25.111 51.3919 26.353ZM48.0569 25.433C48.0415 24.605 47.7425 23.9457 47.1599 23.455C46.5772 22.949 45.8642 22.696 45.0209 22.696C44.2235 22.696 43.5489 22.9413 42.9969 23.432C42.4602 23.9073 42.1305 24.5743 42.0079 25.433H48.0569ZM61.2632 20.074C62.7812 20.074 64.0078 20.557 64.9432 21.523C65.8785 22.4737 66.3462 23.8077 66.3462 25.525V33H63.1262V25.962C63.1262 24.95 62.8732 24.1757 62.3672 23.639C61.8612 23.087 61.1712 22.811 60.2972 22.811C59.4078 22.811 58.7025 23.087 58.1812 23.639C57.6752 24.1757 57.4222 24.95 57.4222 25.962V33H54.2022V20.258H57.4222V21.845C57.8515 21.293 58.3958 20.8637 59.0552 20.557C59.7298 20.235 60.4658 20.074 61.2632 20.074ZM69.0402 26.583C69.0402 25.295 69.2932 24.1527 69.7992 23.156C70.3206 22.1593 71.0259 21.3927 71.9152 20.856C72.8046 20.3193 73.7936 20.051 74.8822 20.051C75.7102 20.051 76.4999 20.235 77.2512 20.603C78.0026 20.9557 78.6006 21.431 79.0452 22.029V15.98H82.3112V33H79.0452V31.114C78.6466 31.7427 78.0869 32.2487 77.3662 32.632C76.6456 33.0153 75.8099 33.207 74.8592 33.207C73.7859 33.207 72.8046 32.931 71.9152 32.379C71.0259 31.827 70.3206 31.0527 69.7992 30.056C69.2932 29.044 69.0402 27.8863 69.0402 26.583ZM79.0682 26.629C79.0682 25.847 78.9149 25.18 78.6082 24.628C78.3016 24.0607 77.8876 23.6313 77.3662 23.34C76.8449 23.0333 76.2852 22.88 75.6872 22.88C75.0892 22.88 74.5372 23.0257 74.0312 23.317C73.5252 23.6083 73.1112 24.0377 72.7892 24.605C72.4826 25.157 72.3292 25.8163 72.3292 26.583C72.3292 27.3497 72.4826 28.0243 72.7892 28.607C73.1112 29.1743 73.5252 29.6113 74.0312 29.918C74.5526 30.2247 75.1046 30.378 75.6872 30.378C76.2852 30.378 76.8449 30.2323 77.3662 29.941C77.8876 29.6343 78.3016 29.205 78.6082 28.653C78.9149 28.0857 79.0682 27.411 79.0682 26.629ZM99.3086 33.161C97.8059 33.161 96.4259 32.8083 95.1686 32.103C93.9113 31.3977 92.9146 30.424 92.1786 29.182C91.4426 27.9247 91.0746 26.5063 91.0746 24.927C91.0746 23.363 91.4426 21.96 92.1786 20.718C92.9146 19.4607 93.9113 18.4793 95.1686 17.774C96.4259 17.0687 97.8059 16.716 99.3086 16.716C100.827 16.716 102.207 17.0687 103.449 17.774C104.706 18.4793 105.695 19.4607 106.416 20.718C107.152 21.96 107.52 23.363 107.52 24.927C107.52 26.5063 107.152 27.9247 106.416 29.182C105.695 30.424 104.706 31.3977 103.449 32.103C102.191 32.8083 100.811 33.161 99.3086 33.161ZM99.3086 30.286C100.275 30.286 101.126 30.0713 101.862 29.642C102.598 29.1973 103.173 28.5687 103.587 27.756C104.001 26.9433 104.208 26.0003 104.208 24.927C104.208 23.8537 104.001 22.9183 103.587 22.121C103.173 21.3083 102.598 20.6873 101.862 20.258C101.126 19.8287 100.275 19.614 99.3086 19.614C98.3426 19.614 97.4839 19.8287 96.7326 20.258C95.9966 20.6873 95.4216 21.3083 95.0076 22.121C94.5936 22.9183 94.3866 23.8537 94.3866 24.927C94.3866 26.0003 94.5936 26.9433 95.0076 27.756C95.4216 28.5687 95.9966 29.1973 96.7326 29.642C97.4839 30.0713 98.3426 30.286 99.3086 30.286ZM121.3 16.946V19.545H117.022V33H113.802V19.545H109.524V16.946H121.3ZM135.817 21.914C135.817 22.7727 135.61 23.5777 135.196 24.329C134.797 25.0803 134.161 25.686 133.287 26.146C132.428 26.606 131.339 26.836 130.021 26.836H127.33V33H124.11V16.946H130.021C131.263 16.946 132.321 17.1607 133.195 17.59C134.069 18.0193 134.72 18.6097 135.15 19.361C135.594 20.1123 135.817 20.9633 135.817 21.914ZM129.883 24.237C130.772 24.237 131.431 24.0377 131.861 23.639C132.29 23.225 132.505 22.65 132.505 21.914C132.505 20.35 131.631 19.568 129.883 19.568H127.33V24.237H129.883Z" fill="white"/>
</g>
<defs>
<filter id="filter0_d" x="0" y="0" width="159" height="58" filterUnits="userSpaceOnUse" color-interpolation-filters="sRGB">
<feFlood flood-opacity="0" result="BackgroundImageFix"/>
<feColorMatrix in="SourceAlpha" type="matrix" values="0 0 0 0 0 0 0 0 0 0 0 0 0 0 0 0 0 0 127 0" result="hardAlpha"/>
<feOffset dy="4"/>
<feGaussianBlur stdDeviation="2"/>
<feComposite in2="hardAlpha" operator="out"/>
<feColorMatrix type="matrix" values="0 0 0 0 0 0 0 0 0 0 0 0 0 0 0 0 0 0 0.25 0"/>
<feBlend mode="normal" in2="BackgroundImageFix" result="effect1_dropShadow"/>
<feBlend mode="normal" in="SourceGraphic" in2="effect1_dropShadow" result="shape"/>
</filter>
</defs>
</svg>
