<svg width="25" height="25" viewBox="0 0 25 25" fill="none" xmlns="http://www.w3.org/2000/svg">
<g clip-path="url(#clip0)">
<path d="M15 15.9331H17.5V18.4331H15V15.9331Z" fill="#FF7043"/>
<path d="M6.25 3.43311H18.75C18.8416 3.43314 18.9321 3.45331 19.015 3.49219C19.098 3.53108 19.1714 3.58772 19.23 3.65811L22.355 7.40811C22.5013 7.58311 22.5 7.67186 22.5 7.78561V9.68311C22.5 10.7931 22.0175 11.7919 21.25 12.4781V22.8081C21.25 22.9739 21.1842 23.1328 21.0669 23.25C20.9497 23.3673 20.7908 23.4331 20.625 23.4331H12.5V15.3081C12.5 15.1423 12.4342 14.9834 12.3169 14.8662C12.1997 14.749 12.0408 14.6831 11.875 14.6831H6.875C6.70924 14.6831 6.55027 14.749 6.43306 14.8662C6.31585 14.9834 6.25 15.1423 6.25 15.3081V23.4331H4.375C4.20924 23.4331 4.05027 23.3673 3.93306 23.25C3.81585 23.1328 3.75 22.9739 3.75 22.8081V12.4781C2.9825 11.7906 2.5 10.7931 2.5 9.68311V7.80811C2.50007 7.66192 2.55137 7.52038 2.645 7.40811L5.77 3.65811C5.82863 3.58772 5.90202 3.53108 5.98496 3.49219C6.06791 3.45331 6.15839 3.43314 6.25 3.43311ZM3.75 8.43311V9.68311C3.75 10.3461 4.01339 10.982 4.48223 11.4509C4.95107 11.9197 5.58696 12.1831 6.25 12.1831C6.91304 12.1831 7.54893 11.9197 8.01777 11.4509C8.48661 10.982 8.75 10.3461 8.75 9.68311V8.43311H3.75ZM10 8.43311V9.68311C10 10.3461 10.2634 10.982 10.7322 11.4509C11.2011 11.9197 11.837 12.1831 12.5 12.1831C13.163 12.1831 13.7989 11.9197 14.2678 11.4509C14.7366 10.982 15 10.3461 15 9.68311V8.43311H10ZM16.25 8.43311V9.68311C16.25 10.3461 16.5134 10.982 16.9822 11.4509C17.4511 11.9197 18.087 12.1831 18.75 12.1831C19.413 12.1831 20.0489 11.9197 20.5178 11.4509C20.9866 10.982 21.25 10.3461 21.25 9.68311V8.43311H16.25ZM6.5425 4.68311L4.46 7.18311H8.925L9.7575 4.68311H6.5425ZM14.7575 7.18311L13.925 4.68311H11.075L10.2425 7.18311H14.7575ZM16.075 7.18311H20.5413L18.4575 4.68311H15.2425L16.075 7.18311ZM13.75 15.3081V19.0581C13.75 19.2239 13.8158 19.3828 13.9331 19.5C14.0503 19.6173 14.2092 19.6831 14.375 19.6831H18.125C18.2908 19.6831 18.4497 19.6173 18.5669 19.5C18.6842 19.3828 18.75 19.2239 18.75 19.0581V15.3081C18.75 15.1423 18.6842 14.9834 18.5669 14.8662C18.4497 14.749 18.2908 14.6831 18.125 14.6831H14.375C14.2092 14.6831 14.0503 14.749 13.9331 14.8662C13.8158 14.9834 13.75 15.1423 13.75 15.3081Z" fill="#FF7043"/>
<path d="M11.25 23.4331V15.9331H7.5V23.4331H11.25Z" fill="#FF7043"/>
</g>
<defs>
<clipPath id="clip0">
<rect width="25" height="23.3333" fill="white" transform="translate(0 0.933105)"/>
</clipPath>
</defs>
</svg>
