<svg width="82" height="40" viewBox="0 0 82 40" fill="none" xmlns="http://www.w3.org/2000/svg">
<g filter="url(#filter0_dd_1471:3803)">
<path d="M4 10C4 5.58172 7.58172 2 12 2H70C74.4183 2 78 5.58172 78 10V26C78 30.4183 74.4183 34 70 34H12C7.58172 34 4 30.4183 4 26V10Z" fill="#FF8A65"/>
<path d="M21.268 16.228C21.268 16.984 20.848 17.476 19.912 17.476H18.508V15.016H19.912C20.848 15.016 21.268 15.484 21.268 16.228ZM16.828 13.624V22H18.508V18.736H19.3L21.148 22H23.092L21.088 18.604C22.432 18.244 22.996 17.212 22.996 16.192C22.996 14.788 21.988 13.624 19.972 13.624H16.828ZM27.5731 16.624C28.4371 16.624 29.1331 17.176 29.1571 18.052H26.0011C26.1331 17.14 26.7691 16.624 27.5731 16.624ZM30.7291 19.912H28.9171C28.7011 20.356 28.3051 20.716 27.5851 20.716C26.7451 20.716 26.0731 20.164 25.9891 19.18H30.8491C30.8851 18.964 30.8971 18.748 30.8971 18.532C30.8971 16.552 29.5411 15.244 27.6211 15.244C25.6531 15.244 24.2851 16.576 24.2851 18.676C24.2851 20.764 25.6891 22.108 27.6211 22.108C29.2651 22.108 30.3691 21.136 30.7291 19.912ZM38.745 18.676C38.745 16.576 37.245 15.244 35.325 15.244C33.405 15.244 31.905 16.576 31.905 18.676C31.905 20.764 33.357 22.108 35.277 22.108C37.209 22.108 38.745 20.764 38.745 18.676ZM33.609 18.676C33.609 17.344 34.413 16.708 35.301 16.708C36.189 16.708 37.017 17.344 37.017 18.676C37.017 19.996 36.165 20.644 35.277 20.644C34.377 20.644 33.609 19.996 33.609 18.676ZM41.8589 18.688C41.8589 17.404 42.4589 17.02 43.4549 17.02H43.8989V15.256C42.9749 15.256 42.2789 15.7 41.8589 16.384V15.352H40.1789V22H41.8589V18.688ZM44.8001 18.652C44.8001 20.728 46.1441 22.108 47.8361 22.108C48.8801 22.108 49.6241 21.628 50.0201 21.016V22H51.7241V13.12H50.0201V16.276C49.5641 15.652 48.7241 15.244 47.8481 15.244C46.1441 15.244 44.8001 16.576 44.8001 18.652ZM50.0321 18.676C50.0321 19.936 49.1921 20.632 48.2681 20.632C47.3681 20.632 46.5161 19.912 46.5161 18.652C46.5161 17.392 47.3681 16.72 48.2681 16.72C49.1921 16.72 50.0321 17.416 50.0321 18.676ZM56.4225 16.624C57.2865 16.624 57.9825 17.176 58.0065 18.052H54.8505C54.9825 17.14 55.6185 16.624 56.4225 16.624ZM59.5785 19.912H57.7665C57.5505 20.356 57.1545 20.716 56.4345 20.716C55.5945 20.716 54.9225 20.164 54.8385 19.18H59.6985C59.7345 18.964 59.7465 18.748 59.7465 18.532C59.7465 16.552 58.3905 15.244 56.4705 15.244C54.5025 15.244 53.1345 16.576 53.1345 18.676C53.1345 20.764 54.5385 22.108 56.4705 22.108C58.1145 22.108 59.2185 21.136 59.5785 19.912ZM62.8543 18.688C62.8543 17.404 63.4543 17.02 64.4503 17.02H64.8943V15.256C63.9703 15.256 63.2743 15.7 62.8543 16.384V15.352H61.1743V22H62.8543V18.688Z" fill="white"/>
</g>
<defs>
<filter id="filter0_dd_1471:3803" x="0" y="0" width="82" height="40" filterUnits="userSpaceOnUse" color-interpolation-filters="sRGB">
<feFlood flood-opacity="0" result="BackgroundImageFix"/>
<feColorMatrix in="SourceAlpha" type="matrix" values="0 0 0 0 0 0 0 0 0 0 0 0 0 0 0 0 0 0 127 0" result="hardAlpha"/>
<feOffset dy="2"/>
<feGaussianBlur stdDeviation="2"/>
<feColorMatrix type="matrix" values="0 0 0 0 0.74902 0 0 0 0 0.443137 0 0 0 0 0.0588235 0 0 0 0.2 0"/>
<feBlend mode="multiply" in2="BackgroundImageFix" result="effect1_dropShadow_1471:3803"/>
<feColorMatrix in="SourceAlpha" type="matrix" values="0 0 0 0 0 0 0 0 0 0 0 0 0 0 0 0 0 0 127 0" result="hardAlpha"/>
<feOffset dy="1"/>
<feGaussianBlur stdDeviation="1"/>
<feColorMatrix type="matrix" values="0 0 0 0 0.74902 0 0 0 0 0.443137 0 0 0 0 0.0588235 0 0 0 0.2 0"/>
<feBlend mode="multiply" in2="effect1_dropShadow_1471:3803" result="effect2_dropShadow_1471:3803"/>
<feBlend mode="normal" in="SourceGraphic" in2="effect2_dropShadow_1471:3803" result="shape"/>
</filter>
</defs>
</svg>
