<svg width="18" height="18" viewBox="0 0 18 18" fill="none" xmlns="http://www.w3.org/2000/svg">
<path d="M9.00008 0.666748C11.2102 0.666748 13.3298 1.54472 14.8926 3.10752C16.4554 4.67033 17.3334 6.78994 17.3334 9.00008C17.3334 11.2102 16.4554 13.3298 14.8926 14.8926C13.3298 16.4554 11.2102 17.3334 9.00008 17.3334C6.78994 17.3334 4.67033 16.4554 3.10752 14.8926C1.54472 13.3298 0.666748 11.2102 0.666748 9.00008C0.666748 6.78994 1.54472 4.67033 3.10752 3.10752C4.67033 1.54472 6.78994 0.666748 9.00008 0.666748ZM8.16675 4.83342C7.94573 4.83342 7.73377 4.92121 7.57749 5.07749C7.42121 5.23377 7.33342 5.44573 7.33342 5.66675V9.83342C7.33342 10.0544 7.42121 10.2664 7.57749 10.4227C7.73377 10.579 7.94573 10.6667 8.16675 10.6667H11.5001C11.7211 10.6667 11.9331 10.579 12.0893 10.4227C12.2456 10.2664 12.3334 10.0544 12.3334 9.83342C12.3334 9.6124 12.2456 9.40044 12.0893 9.24416C11.9331 9.08788 11.7211 9.00008 11.5001 9.00008H9.00008V5.66675C9.00008 5.44573 8.91228 5.23377 8.756 5.07749C8.59972 4.92121 8.38776 4.83342 8.16675 4.83342Z" fill="#FF7043"/>
</svg>
