<svg width="25" height="25" viewBox="0 0 25 25" fill="none" xmlns="http://www.w3.org/2000/svg">
<path d="M16.6666 3.125H1.04163V16.6667H16.6666V3.125Z" stroke="#FF7043" stroke-width="2" stroke-linecap="round" stroke-linejoin="round"/>
<path d="M16.6666 8.33325H20.8333L23.9583 11.4583V16.6666H16.6666V8.33325Z" stroke="#FF7043" stroke-width="2" stroke-linecap="round" stroke-linejoin="round"/>
<path d="M5.72917 21.8751C7.16741 21.8751 8.33333 20.7092 8.33333 19.2709C8.33333 17.8327 7.16741 16.6667 5.72917 16.6667C4.29093 16.6667 3.125 17.8327 3.125 19.2709C3.125 20.7092 4.29093 21.8751 5.72917 21.8751Z" stroke="#FF7043" stroke-width="2" stroke-linecap="round" stroke-linejoin="round"/>
<path d="M19.2708 21.8751C20.709 21.8751 21.875 20.7092 21.875 19.2709C21.875 17.8327 20.709 16.6667 19.2708 16.6667C17.8326 16.6667 16.6666 17.8327 16.6666 19.2709C16.6666 20.7092 17.8326 21.8751 19.2708 21.8751Z" stroke="#FF7043" stroke-width="2" stroke-linecap="round" stroke-linejoin="round"/>
</svg>
