<svg width="22" height="21" viewBox="0 0 22 21" fill="none" xmlns="http://www.w3.org/2000/svg">
<path d="M11 11L13.5 13M11 11V20V11ZM11 11L8.5 13L11 11Z" stroke="black" stroke-width="2" stroke-linecap="round" stroke-linejoin="round"/>
<path d="M4.03396 8.11719C3.08817 8.35518 2.26184 8.93035 1.71021 9.73463C1.15859 10.5389 0.919644 11.5169 1.03827 12.485C1.15689 13.453 1.62492 14.3444 2.35443 14.9917C3.08393 15.639 4.02469 15.9976 4.99996 16.0002H5.99996" stroke="black" stroke-width="2" stroke-linecap="round" stroke-linejoin="round"/>
<path d="M14.8299 6.13821C14.4881 4.78478 13.6445 3.61195 12.47 2.85746C11.2956 2.10298 9.87819 1.8233 8.50517 2.07511C7.13215 2.32692 5.90625 3.09139 5.07598 4.21354C4.2457 5.3357 3.87318 6.73157 4.03392 8.11821C4.03392 8.11821 4.18692 9.00021 4.49992 9.50021" stroke="black" stroke-width="2" stroke-linecap="round" stroke-linejoin="round"/>
<path d="M16 16C16.706 15.9995 17.404 15.8495 18.0479 15.5599C18.6917 15.2702 19.267 14.8475 19.7357 14.3195C20.2045 13.7915 20.5561 13.1702 20.7674 12.4965C20.9787 11.8229 21.045 11.1121 20.9618 10.4109C20.8786 9.70982 20.6479 9.03427 20.2848 8.42874C19.9217 7.82321 19.4345 7.30145 18.8552 6.89778C18.276 6.49412 17.6178 6.21772 16.924 6.08676C16.2302 5.9558 15.5166 5.97327 14.83 6.138L13.5 6.5" stroke="black" stroke-width="2" stroke-linecap="round" stroke-linejoin="round"/>
</svg>
