<svg width="25" height="24" viewBox="0 0 25 24" fill="none" xmlns="http://www.w3.org/2000/svg">
<g clip-path="url(#clip0)">
<path d="M22.5236 3H21.7736L17.9767 16.9688C17.9142 17.25 17.7306 17.4922 17.4259 17.6953C17.1212 17.8984 16.8204 18 16.5236 18H5.27355C4.91417 18 4.60167 17.9023 4.33604 17.707C4.07042 17.5117 3.89854 17.2656 3.82042 16.9688L0.117283 8.15625C-0.0389671 7.57812 -0.0155296 7.07422 0.187596 6.64453C0.390721 6.21484 0.711035 6 1.14854 6H1.59385C1.89073 6 2.16807 6.10547 2.42588 6.31641C2.6837 6.52734 2.85167 6.78125 2.92979 7.07812L6.02355 15H15.7736L19.7814 1.05469C19.8595 0.757812 20.0158 0.507812 20.2501 0.304688C20.4845 0.101562 20.7423 0 21.0236 0H22.5236C22.9455 0 23.3009 0.148438 23.59 0.445312C23.8791 0.742188 24.0236 1.09766 24.0236 1.51172C24.0236 1.92578 23.8791 2.27734 23.59 2.56641C23.3009 2.85547 22.9455 3 22.5236 3ZM15.0353 9C14.6212 9 14.2658 8.85547 13.9689 8.56641C13.672 8.27734 13.5236 7.92578 13.5236 7.51172C13.5236 7.09766 13.672 6.74219 13.9689 6.44531C14.2658 6.14844 14.6212 6 15.0353 6C15.4494 6 15.8009 6.14844 16.09 6.44531C16.379 6.74219 16.5236 7.09766 16.5236 7.51172C16.5236 7.92578 16.379 8.27734 16.09 8.56641C15.8009 8.85547 15.4494 9 15.0353 9ZM15.0236 12.0117C15.0236 12.4258 14.879 12.7773 14.59 13.0664C14.3009 13.3555 13.9493 13.5 13.5353 13.5C13.1212 13.5 12.7658 13.3555 12.4689 13.0664C12.172 12.7773 12.0236 12.4258 12.0236 12.0117C12.0236 11.5977 12.172 11.2422 12.4689 10.9453C12.7658 10.6484 13.1212 10.5 13.5353 10.5C13.9493 10.5 14.3009 10.6484 14.59 10.9453C14.879 11.2422 15.0236 11.5977 15.0236 12.0117ZM12.0353 4.5C11.6212 4.5 11.2657 4.35547 10.9689 4.06641C10.672 3.77734 10.5236 3.42578 10.5236 3.01172C10.5236 2.59766 10.672 2.24219 10.9689 1.94531C11.2657 1.64844 11.6212 1.5 12.0353 1.5C12.4493 1.5 12.8009 1.64844 13.09 1.94531C13.379 2.24219 13.5236 2.59766 13.5236 3.01172C13.5236 3.42578 13.379 3.77734 13.09 4.06641C12.8009 4.35547 12.4493 4.5 12.0353 4.5ZM12.0236 7.51172C12.0236 7.92578 11.879 8.27734 11.59 8.56641C11.3009 8.85547 10.9493 9 10.5353 9C10.1212 9 9.76575 8.85547 9.46887 8.56641C9.17199 8.27734 9.02356 7.92578 9.02356 7.51172C9.02356 7.09766 9.17199 6.74219 9.46887 6.44531C9.76575 6.14844 10.1212 6 10.5353 6C10.9493 6 11.3009 6.14844 11.59 6.44531C11.879 6.74219 12.0236 7.09766 12.0236 7.51172ZM10.5236 12.0117C10.5236 12.4258 10.379 12.7773 10.09 13.0664C9.8009 13.3555 9.44934 13.5 9.03527 13.5C8.62121 13.5 8.26574 13.3555 7.96887 13.0664C7.67199 12.7773 7.52355 12.4258 7.52355 12.0117C7.52355 11.5977 7.67199 11.2422 7.96887 10.9453C8.26574 10.6484 8.62121 10.5 9.03527 10.5C9.44934 10.5 9.8009 10.6484 10.09 10.9453C10.379 11.2422 10.5236 11.5977 10.5236 12.0117ZM7.53527 4.5C7.12121 4.5 6.76574 4.35547 6.46886 4.06641C6.17199 3.77734 6.02355 3.42578 6.02355 3.01172C6.02355 2.59766 6.17199 2.24219 6.46886 1.94531C6.76574 1.64844 7.12121 1.5 7.53527 1.5C7.94933 1.5 8.3009 1.64844 8.58996 1.94531C8.87902 2.24219 9.02356 2.59766 9.02356 3.01172C9.02356 3.42578 8.87902 3.77734 8.58996 4.06641C8.3009 4.35547 7.94933 4.5 7.53527 4.5ZM7.52355 7.51172C7.52355 7.92578 7.37902 8.27734 7.08996 8.56641C6.80089 8.85547 6.44933 9 6.03527 9C5.6212 9 5.26573 8.85547 4.96886 8.56641C4.67198 8.27734 4.52354 7.92578 4.52354 7.51172C4.52354 7.09766 4.67198 6.74219 4.96886 6.44531C5.26573 6.14844 5.6212 6 6.03527 6C6.44933 6 6.80089 6.14844 7.08996 6.44531C7.37902 6.74219 7.52355 7.09766 7.52355 7.51172ZM6.89074 19.5C7.51574 19.5 8.04699 19.7188 8.48449 20.1562C8.92199 20.5938 9.14074 21.125 9.14074 21.75C9.14074 22.375 8.92199 22.9062 8.48449 23.3438C8.04699 23.7812 7.51574 24 6.89074 24C6.26574 24 5.73448 23.7812 5.29698 23.3438C4.85948 22.9062 4.64073 22.375 4.64073 21.75C4.64073 21.125 4.85948 20.5938 5.29698 20.1562C5.73448 19.7188 6.26574 19.5 6.89074 19.5ZM14.379 19.5C14.9962 19.5 15.5275 19.7188 15.9728 20.1562C16.4181 20.5938 16.6408 21.125 16.6408 21.75C16.6408 22.375 16.4181 22.9062 15.9728 23.3438C15.5275 23.7812 14.9962 24 14.379 24C13.7618 24 13.2345 23.7812 12.797 23.3438C12.3595 22.9062 12.1408 22.375 12.1408 21.75C12.1408 21.125 12.3595 20.5938 12.797 20.1562C13.2345 19.7188 13.7618 19.5 14.379 19.5Z" fill="#8DBF15"/>
</g>
<defs>
<clipPath id="clip0">
<rect width="24.0234" height="24" fill="white"/>
</clipPath>
</defs>
</svg>
