<svg width="24" height="24" viewBox="0 0 24 24" fill="none" xmlns="http://www.w3.org/2000/svg">
<path d="M12.7455 3.90302L13.7226 5.88838L15.9126 6.20445C16.1376 6.23659 16.2265 6.51302 16.0648 6.67052L14.4801 8.21338L14.8551 10.3948C14.8638 10.4451 14.8582 10.4968 14.839 10.544C14.8198 10.5913 14.7878 10.6322 14.7465 10.6622C14.7053 10.6922 14.6565 10.71 14.6056 10.7137C14.5547 10.7174 14.5038 10.7068 14.4587 10.683L12.5001 9.65231L10.5426 10.683C10.4975 10.7068 10.4466 10.7174 10.3957 10.7137C10.3448 10.71 10.296 10.6922 10.2548 10.6622C10.2135 10.6322 10.1815 10.5913 10.1623 10.544C10.1431 10.4968 10.1375 10.4451 10.1462 10.3948L10.5212 8.21445L8.93548 6.67159C8.89862 6.63601 8.87252 6.59078 8.86014 6.54106C8.84777 6.49135 8.84962 6.43916 8.86548 6.39045C8.88135 6.34174 8.91059 6.29847 8.94986 6.26558C8.98914 6.23269 9.03688 6.21151 9.08762 6.20445L11.2776 5.88838L12.2548 3.90302C12.2772 3.85712 12.3122 3.81844 12.3555 3.79139C12.3989 3.76434 12.449 3.75 12.5001 3.75C12.5512 3.75 12.6013 3.76434 12.6447 3.79139C12.6881 3.81844 12.723 3.85712 12.7455 3.90302Z" fill="#636568"/>
<path d="M20 7.50105C20.0002 6.27086 19.6977 5.05951 19.1193 3.97378C18.5409 2.88804 17.7044 1.96124 16.6833 1.27507C15.6623 0.588898 14.4881 0.164422 13.2643 0.039051C12.0406 -0.0863197 10.8047 0.0912646 9.66575 0.556153C8.52678 1.02104 7.51966 1.75896 6.73314 2.70487C5.94661 3.65078 5.40485 4.77564 5.15558 5.98031C4.90631 7.18498 4.9572 8.43247 5.30376 9.61283C5.65032 10.7932 6.2819 11.8702 7.14286 12.7489V20.626L7.15143 20.7385C7.17067 20.8749 7.22463 21.004 7.30812 21.1135C7.39161 21.223 7.50184 21.3092 7.62822 21.3638C7.75461 21.4184 7.89291 21.4397 8.02987 21.4255C8.16683 21.4113 8.29785 21.3622 8.41036 21.2828L12.4989 18.4039L16.5907 21.2839L16.6861 21.3418C16.8086 21.4045 16.9452 21.4348 17.0828 21.4296C17.2204 21.4244 17.3544 21.3839 17.4718 21.3121C17.5893 21.2402 17.6863 21.1394 17.7536 21.0193C17.8209 20.8991 17.8562 20.7637 17.8561 20.626L17.8582 12.7489C19.2334 11.3486 20.0026 9.46367 20 7.50105ZM16.25 13.9982V19.0778L12.9607 16.7635L12.8536 16.6993C12.7241 16.6356 12.5798 16.608 12.436 16.6193C12.2922 16.6306 12.154 16.6804 12.0361 16.7635L8.75107 19.0778V13.9982C9.89048 14.657 11.1838 15.003 12.5 15.001C13.8661 15.001 15.1464 14.6368 16.25 13.9982ZM6.60714 7.50105C6.60714 5.93817 7.22799 4.4393 8.33312 3.33417C9.43824 2.22905 10.9371 1.60819 12.5 1.60819C14.0629 1.60819 15.5617 2.22905 16.6669 3.33417C17.772 4.4393 18.3929 5.93817 18.3929 7.50105C18.3929 9.06393 17.772 10.5628 16.6669 11.6679C15.5617 12.7731 14.0629 13.3939 12.5 13.3939C10.9371 13.3939 9.43824 12.7731 8.33312 11.6679C7.22799 10.5628 6.60714 9.06393 6.60714 7.50105Z" fill="#636568"/>
</svg>
