<svg width="24" height="24" viewBox="0 0 24 24" fill="none" xmlns="http://www.w3.org/2000/svg">
<path d="M5 20C5.55228 20 6 19.5523 6 19C6 18.4477 5.55228 18 5 18C4.44772 18 4 18.4477 4 19C4 19.5523 4.44772 20 5 20Z" fill="#2A3757"/>
<path d="M4 4H6V13H4V4Z" fill="#2A3757"/>
<path d="M7 2H3C2.73478 2 2.48043 2.10536 2.29289 2.29289C2.10536 2.48043 2 2.73478 2 3V21C2 21.2652 2.10536 21.5196 2.29289 21.7071C2.48043 21.8946 2.73478 22 3 22H7C7.26522 22 7.51957 21.8946 7.70711 21.7071C7.89464 21.5196 8 21.2652 8 21V3C8 2.73478 7.89464 2.48043 7.70711 2.29289C7.51957 2.10536 7.26522 2 7 2ZM7 21H3V3H7V21Z" fill="#2A3757"/>
<path d="M14 3V10H11V3H14ZM15 2H10V11H15V2Z" fill="#2A3757"/>
<path d="M21 3V10H18V3H21ZM22 2H17V11H22V2Z" fill="#2A3757"/>
<path d="M14 14V21H11V14H14ZM15 13H10V22H15V13Z" fill="#2A3757"/>
<path d="M21 14V21H18V14H21ZM22 13H17V22H22V13Z" fill="#2A3757"/>
</svg>
