<svg width="26" height="26" viewBox="0 0 26 26" fill="none" xmlns="http://www.w3.org/2000/svg">
<g opacity="0.5">
<path d="M9.92188 21.0625H6.78125C5.67066 21.0625 4.60555 20.6213 3.82024 19.836C3.03493 19.0507 2.59375 17.9856 2.59375 16.875V7.45312C2.59375 6.34253 3.03493 5.27742 3.82024 4.49212C4.60555 3.70681 5.67066 3.26563 6.78125 3.26562H18.2969C19.4075 3.26563 20.4726 3.70681 21.2579 4.49212C22.0432 5.27742 22.4844 6.34253 22.4844 7.45312V10.5938" stroke="#2A3757" stroke-width="2.09375" stroke-linecap="round" stroke-linejoin="round"/>
<path d="M8.875 2.21875V4.3125" stroke="#2A3757" stroke-width="2.09375" stroke-linecap="round" stroke-linejoin="round"/>
<path d="M16.2031 2.21875V4.3125" stroke="#2A3757" stroke-width="2.09375" stroke-linecap="round" stroke-linejoin="round"/>
<path d="M2.59375 8.5H22.4844" stroke="#2A3757" stroke-width="2.09375" stroke-linecap="round" stroke-linejoin="round"/>
<path d="M19.8672 16.5013L18.2969 18.0717" stroke="#2A3757" stroke-width="2.09375" stroke-linecap="round" stroke-linejoin="round"/>
<path d="M18.2969 23.1562C21.1877 23.1562 23.5312 20.8127 23.5312 17.9219C23.5312 15.031 21.1877 12.6875 18.2969 12.6875C15.406 12.6875 13.0625 15.031 13.0625 17.9219C13.0625 20.8127 15.406 23.1562 18.2969 23.1562Z" stroke="#2A3757" stroke-width="2.09375" stroke-linecap="round" stroke-linejoin="round"/>
</g>
</svg>
