<svg width="25" height="18" viewBox="0 0 25 18" fill="none" xmlns="http://www.w3.org/2000/svg">
<rect x="0.25" y="0.25" width="24.5" height="17.3571" rx="1.75" fill="white" stroke="#F5F5F5" stroke-width="0.5"/>
<mask id="mask0" style="mask-type:alpha" maskUnits="userSpaceOnUse" x="0" y="0" width="25" height="18">
<rect x="0.25" y="0.25" width="24.5" height="17.3571" rx="1.75" fill="white" stroke="white" stroke-width="0.5"/>
</mask>
<g mask="url(#mask0)">
<path fill-rule="evenodd" clip-rule="evenodd" d="M0 5.95238H25V0H0V5.95238Z" fill="#FFA44A"/>
<path fill-rule="evenodd" clip-rule="evenodd" d="M0 17.8572H25V11.9048H0V17.8572Z" fill="#1A9F0B"/>
<path d="M12.5001 11.0478C13.6704 11.0478 14.6191 10.0991 14.6191 8.92878C14.6191 7.75846 13.6704 6.80973 12.5001 6.80973C11.3298 6.80973 10.381 7.75846 10.381 8.92878C10.381 10.0991 11.3298 11.0478 12.5001 11.0478Z" fill="#181A93" fill-opacity="0.15" stroke="#181A93" stroke-width="0.666667"/>
<path fill-rule="evenodd" clip-rule="evenodd" d="M12.5 9.52397C12.8288 9.52397 13.0953 9.25747 13.0953 8.92873C13.0953 8.59999 12.8288 8.3335 12.5 8.3335C12.1713 8.3335 11.9048 8.59999 11.9048 8.92873C11.9048 9.25747 12.1713 9.52397 12.5 9.52397Z" fill="#181A93"/>
</g>
</svg>
